%TF.GenerationSoftware,KiCad,Pcbnew,(6.0.4)*%
%TF.CreationDate,2023-01-10T10:28:08+00:00*%
%TF.ProjectId,il-flatto,696c2d66-6c61-4747-946f-2e6b69636164,rev?*%
%TF.SameCoordinates,Original*%
%TF.FileFunction,Soldermask,Bot*%
%TF.FilePolarity,Negative*%
%FSLAX46Y46*%
G04 Gerber Fmt 4.6, Leading zero omitted, Abs format (unit mm)*
G04 Created by KiCad (PCBNEW (6.0.4)) date 2023-01-10 10:28:08*
%MOMM*%
%LPD*%
G01*
G04 APERTURE LIST*
G04 Aperture macros list*
%AMRoundRect*
0 Rectangle with rounded corners*
0 $1 Rounding radius*
0 $2 $3 $4 $5 $6 $7 $8 $9 X,Y pos of 4 corners*
0 Add a 4 corners polygon primitive as box body*
4,1,4,$2,$3,$4,$5,$6,$7,$8,$9,$2,$3,0*
0 Add four circle primitives for the rounded corners*
1,1,$1+$1,$2,$3*
1,1,$1+$1,$4,$5*
1,1,$1+$1,$6,$7*
1,1,$1+$1,$8,$9*
0 Add four rect primitives between the rounded corners*
20,1,$1+$1,$2,$3,$4,$5,0*
20,1,$1+$1,$4,$5,$6,$7,0*
20,1,$1+$1,$6,$7,$8,$9,0*
20,1,$1+$1,$8,$9,$2,$3,0*%
G04 Aperture macros list end*
%ADD10C,1.600000*%
%ADD11O,1.600000X1.600000*%
%ADD12C,6.000000*%
%ADD13R,1.600000X1.600000*%
%ADD14R,1.700000X1.700000*%
%ADD15O,1.700000X1.700000*%
%ADD16C,1.500000*%
%ADD17C,0.650000*%
%ADD18C,1.397000*%
%ADD19C,2.000000*%
%ADD20C,0.500000*%
%ADD21R,1.800000X1.800000*%
%ADD22C,1.800000*%
%ADD23RoundRect,0.312500X0.437500X0.562500X-0.437500X0.562500X-0.437500X-0.562500X0.437500X-0.562500X0*%
%ADD24O,1.500000X1.750000*%
%ADD25RoundRect,0.237500X-0.237500X0.300000X-0.237500X-0.300000X0.237500X-0.300000X0.237500X0.300000X0*%
%ADD26R,0.762000X1.117600*%
%ADD27RoundRect,0.250001X-0.462499X-0.624999X0.462499X-0.624999X0.462499X0.624999X-0.462499X0.624999X0*%
%ADD28RoundRect,0.237500X0.237500X-0.300000X0.237500X0.300000X-0.237500X0.300000X-0.237500X-0.300000X0*%
%ADD29RoundRect,0.250000X0.650000X-0.412500X0.650000X0.412500X-0.650000X0.412500X-0.650000X-0.412500X0*%
%ADD30RoundRect,0.250000X-0.650000X0.412500X-0.650000X-0.412500X0.650000X-0.412500X0.650000X0.412500X0*%
%ADD31RoundRect,0.250000X0.350000X0.450000X-0.350000X0.450000X-0.350000X-0.450000X0.350000X-0.450000X0*%
%ADD32RoundRect,0.150000X0.150000X-0.825000X0.150000X0.825000X-0.150000X0.825000X-0.150000X-0.825000X0*%
G04 APERTURE END LIST*
%TO.C,G\u002A\u002A\u002A*%
G36*
X244796257Y-106510761D02*
G01*
X244796805Y-106581884D01*
X244796742Y-106674333D01*
X244796710Y-106703076D01*
X244796997Y-106783942D01*
X244797793Y-106855580D01*
X244799019Y-106913858D01*
X244800597Y-106954643D01*
X244802448Y-106973800D01*
X244812041Y-106991556D01*
X244824073Y-106995255D01*
X244829355Y-106980241D01*
X244829320Y-106979028D01*
X244829693Y-106954220D01*
X244831196Y-106919059D01*
X244831232Y-106918396D01*
X244833857Y-106890281D01*
X244839460Y-106884377D01*
X244851239Y-106897193D01*
X244868675Y-106929613D01*
X244878587Y-106970092D01*
X244877795Y-107006603D01*
X244865319Y-107029914D01*
X244863226Y-107031482D01*
X244852439Y-107045191D01*
X244864360Y-107053740D01*
X244900437Y-107058300D01*
X244924678Y-107056074D01*
X244935858Y-107042038D01*
X244936838Y-107034300D01*
X244948349Y-107015902D01*
X244948921Y-107015576D01*
X244962392Y-107020660D01*
X244976141Y-107045283D01*
X244988288Y-107083585D01*
X244996954Y-107129708D01*
X245000260Y-107177790D01*
X245000007Y-107198939D01*
X244996020Y-107238302D01*
X244984405Y-107267365D01*
X244961619Y-107297061D01*
X244949555Y-107311700D01*
X244928702Y-107350030D01*
X244922978Y-107394958D01*
X244923200Y-107404931D01*
X244927959Y-107445408D01*
X244936969Y-107474988D01*
X244943179Y-107495492D01*
X244948519Y-107535641D01*
X244950330Y-107583161D01*
X244951521Y-107622935D01*
X244955763Y-107656914D01*
X244962100Y-107672855D01*
X244970535Y-107687850D01*
X244974499Y-107716927D01*
X244979642Y-107751499D01*
X244993740Y-107790229D01*
X245007304Y-107829521D01*
X245013061Y-107872896D01*
X245014688Y-107894060D01*
X245027758Y-107927182D01*
X245058272Y-107962414D01*
X245063988Y-107968092D01*
X245091311Y-108002880D01*
X245096348Y-108028387D01*
X245095644Y-108042568D01*
X245111673Y-108063140D01*
X245117452Y-108066623D01*
X245126792Y-108077642D01*
X245126076Y-108096655D01*
X245115785Y-108131718D01*
X245110445Y-108147187D01*
X245096316Y-108181611D01*
X245084690Y-108201923D01*
X245077895Y-108206922D01*
X245046351Y-108209512D01*
X244997247Y-108195924D01*
X244932114Y-108166511D01*
X244916823Y-108161494D01*
X244893473Y-108163639D01*
X244887034Y-108166676D01*
X244887393Y-108162093D01*
X244888544Y-108158408D01*
X244880154Y-108139826D01*
X244858412Y-108114835D01*
X244849822Y-108106342D01*
X244828480Y-108082040D01*
X244819935Y-108066846D01*
X244819868Y-108066214D01*
X244811202Y-108049655D01*
X244790829Y-108019595D01*
X244762809Y-107982059D01*
X244726059Y-107940045D01*
X244687420Y-107904661D01*
X244651718Y-107879482D01*
X244623480Y-107867695D01*
X244607232Y-107872490D01*
X244591300Y-107883069D01*
X244558088Y-107882037D01*
X244515500Y-107865929D01*
X244515273Y-107865812D01*
X244483522Y-107854215D01*
X244458837Y-107853037D01*
X244438688Y-107847674D01*
X244416247Y-107820670D01*
X244413750Y-107816546D01*
X244395809Y-107792046D01*
X244382740Y-107782041D01*
X244380594Y-107781798D01*
X244358951Y-107768930D01*
X244326714Y-107739293D01*
X244287323Y-107696778D01*
X244244220Y-107645276D01*
X244200845Y-107588677D01*
X244160639Y-107530874D01*
X244137209Y-107494944D01*
X244108633Y-107449066D01*
X244090510Y-107414693D01*
X244080328Y-107385724D01*
X244075579Y-107356053D01*
X244073751Y-107319576D01*
X244073005Y-107302399D01*
X244062995Y-107235757D01*
X244039929Y-107177995D01*
X244029194Y-107156404D01*
X244014314Y-107119918D01*
X244008475Y-107095275D01*
X244007725Y-107089835D01*
X243994773Y-107063371D01*
X243970825Y-107033991D01*
X243957196Y-107020963D01*
X243937945Y-107007378D01*
X243914423Y-106999933D01*
X243879469Y-106996748D01*
X243825921Y-106995943D01*
X243758698Y-106993963D01*
X243685441Y-106989149D01*
X243622065Y-106982544D01*
X243567389Y-106975889D01*
X243500571Y-106969079D01*
X243443581Y-106964555D01*
X243424722Y-106963441D01*
X243386770Y-106962847D01*
X243361510Y-106968631D01*
X243339401Y-106984304D01*
X243310900Y-107013375D01*
X243293113Y-107033599D01*
X243257304Y-107081027D01*
X243229562Y-107125953D01*
X243218439Y-107146133D01*
X243196413Y-107180546D01*
X243178791Y-107201516D01*
X243175094Y-107205175D01*
X243158538Y-107232270D01*
X243144906Y-107269008D01*
X243142551Y-107277056D01*
X243126997Y-107315074D01*
X243109393Y-107342002D01*
X243101817Y-107350364D01*
X243077865Y-107380399D01*
X243051868Y-107416428D01*
X243041165Y-107431458D01*
X242987803Y-107491291D01*
X242931143Y-107533056D01*
X242874827Y-107554575D01*
X242822497Y-107553669D01*
X242798428Y-107537759D01*
X242780162Y-107501656D01*
X242772377Y-107451594D01*
X242775831Y-107392982D01*
X242791284Y-107331229D01*
X242793706Y-107324333D01*
X242806108Y-107286222D01*
X242808214Y-107270158D01*
X242799438Y-107274515D01*
X242779194Y-107297668D01*
X242752070Y-107322858D01*
X242728136Y-107327053D01*
X242711227Y-107314940D01*
X242710980Y-107297045D01*
X242732723Y-107283597D01*
X242735004Y-107282920D01*
X242758077Y-107268594D01*
X242777849Y-107246125D01*
X242788689Y-107223559D01*
X242784967Y-107208942D01*
X242772073Y-107207117D01*
X242746691Y-107215045D01*
X242733654Y-107218665D01*
X242696266Y-107217035D01*
X242648629Y-107206263D01*
X242598790Y-107188425D01*
X242554798Y-107165593D01*
X242554654Y-107165500D01*
X242535602Y-107149355D01*
X242529027Y-107128129D01*
X242531828Y-107091870D01*
X242539501Y-107052039D01*
X242562713Y-106989328D01*
X242601789Y-106926110D01*
X242660026Y-106856329D01*
X242680871Y-106833114D01*
X242711909Y-106794447D01*
X242727029Y-106766976D01*
X242728648Y-106746846D01*
X242728362Y-106725305D01*
X242740417Y-106694553D01*
X242746965Y-106685077D01*
X242751382Y-106666425D01*
X242736841Y-106645343D01*
X242730236Y-106636996D01*
X242717676Y-106600863D01*
X242723546Y-106554269D01*
X242748337Y-106495248D01*
X242792540Y-106421836D01*
X242820141Y-106379737D01*
X242847372Y-106335599D01*
X242859934Y-106310506D01*
X242858266Y-106303516D01*
X242842806Y-106313684D01*
X242841985Y-106314362D01*
X242827148Y-106323021D01*
X242823485Y-106311919D01*
X242829596Y-106298746D01*
X242832561Y-106295718D01*
X243576761Y-106295718D01*
X243582239Y-106322139D01*
X243601881Y-106348604D01*
X243604832Y-106351888D01*
X243624220Y-106381636D01*
X243628036Y-106405324D01*
X243628834Y-106418998D01*
X243645437Y-106428287D01*
X243682861Y-106435640D01*
X243699101Y-106438389D01*
X243745920Y-106449390D01*
X243783069Y-106462081D01*
X243814620Y-106472543D01*
X243862010Y-106483799D01*
X243914340Y-106493168D01*
X243916942Y-106493554D01*
X243971876Y-106501455D01*
X244006306Y-106505418D01*
X244024999Y-106505476D01*
X244032721Y-106501661D01*
X244034236Y-106494008D01*
X244042329Y-106476873D01*
X244062194Y-106453169D01*
X244076176Y-106437615D01*
X244083530Y-106420136D01*
X244082467Y-106394916D01*
X244074004Y-106353347D01*
X244067815Y-106317484D01*
X244060891Y-106259667D01*
X244054900Y-106191738D01*
X244050682Y-106122021D01*
X244049106Y-106088345D01*
X244045769Y-106031726D01*
X244041873Y-105994523D01*
X244036576Y-105972395D01*
X244029031Y-105960999D01*
X244018395Y-105955993D01*
X244000626Y-105944704D01*
X243999170Y-105918620D01*
X243996814Y-105890468D01*
X243972829Y-105862464D01*
X243935801Y-105841360D01*
X243902862Y-105841018D01*
X243879137Y-105863871D01*
X243866104Y-105879276D01*
X243846957Y-105883778D01*
X243845373Y-105883299D01*
X243825203Y-105889728D01*
X243802620Y-105911331D01*
X243784227Y-105940171D01*
X243776629Y-105968309D01*
X243765654Y-105990846D01*
X243730323Y-106012338D01*
X243702005Y-106026266D01*
X243690071Y-106041497D01*
X243692197Y-106064273D01*
X243693569Y-106070224D01*
X243692643Y-106093041D01*
X243674101Y-106103732D01*
X243658856Y-106112087D01*
X243647826Y-106135117D01*
X243646990Y-106142150D01*
X243636390Y-106172384D01*
X243617507Y-106207677D01*
X243611069Y-106217990D01*
X243586140Y-106263087D01*
X243576761Y-106295718D01*
X242832561Y-106295718D01*
X242848505Y-106279435D01*
X242870765Y-106264159D01*
X242886549Y-106260872D01*
X242886723Y-106260922D01*
X242894267Y-106250363D01*
X242908569Y-106222553D01*
X242926838Y-106183734D01*
X242946287Y-106140148D01*
X242964126Y-106098035D01*
X242977565Y-106063637D01*
X242983817Y-106043197D01*
X242985101Y-106039226D01*
X243001897Y-106019186D01*
X243030970Y-105998116D01*
X243062374Y-105979015D01*
X243114003Y-105942565D01*
X243146855Y-105911314D01*
X243158373Y-105887483D01*
X243159297Y-105882491D01*
X243174790Y-105860781D01*
X243203338Y-105838887D01*
X243235206Y-105815245D01*
X243262924Y-105786186D01*
X243282207Y-105757548D01*
X243289377Y-105734815D01*
X243280756Y-105723468D01*
X243276783Y-105722536D01*
X243268116Y-105715950D01*
X243279837Y-105700928D01*
X243298482Y-105685863D01*
X243309079Y-105684350D01*
X243304785Y-105698648D01*
X243303814Y-105700286D01*
X243301245Y-105708287D01*
X243314915Y-105698722D01*
X243329517Y-105679492D01*
X243349707Y-105640262D01*
X243371697Y-105588631D01*
X243393047Y-105531202D01*
X243411317Y-105474583D01*
X243424068Y-105425376D01*
X243428860Y-105390190D01*
X243431933Y-105373346D01*
X243448181Y-105347659D01*
X243458414Y-105336455D01*
X243467501Y-105313881D01*
X243467710Y-105311596D01*
X243481786Y-105299915D01*
X243519023Y-105296138D01*
X243530572Y-105295810D01*
X243559117Y-105291323D01*
X243570544Y-105283258D01*
X243575766Y-105275617D01*
X243597151Y-105270377D01*
X243618619Y-105268012D01*
X243663509Y-105249332D01*
X243699820Y-105217405D01*
X243718960Y-105178696D01*
X243723777Y-105160967D01*
X243733196Y-105143052D01*
X243736867Y-105142723D01*
X243734004Y-105157675D01*
X243730600Y-105170272D01*
X243732410Y-105180215D01*
X243735712Y-105178344D01*
X243747371Y-105159840D01*
X243761244Y-105128448D01*
X243774116Y-105092745D01*
X243782768Y-105061307D01*
X243783984Y-105042712D01*
X243783318Y-105033984D01*
X243797222Y-105025651D01*
X243810512Y-105019352D01*
X243807962Y-104996671D01*
X243800700Y-104977449D01*
X243790993Y-104961250D01*
X243786160Y-104953721D01*
X243781731Y-104923558D01*
X243783610Y-104879197D01*
X243790708Y-104827549D01*
X243801939Y-104775520D01*
X243816214Y-104730020D01*
X243832446Y-104697957D01*
X243837861Y-104692250D01*
X243866040Y-104677012D01*
X243904951Y-104666196D01*
X243945932Y-104661089D01*
X243980321Y-104662977D01*
X243999455Y-104673147D01*
X244014136Y-104684560D01*
X244043147Y-104690763D01*
X244052090Y-104692016D01*
X244087058Y-104708098D01*
X244134336Y-104740929D01*
X244190881Y-104788238D01*
X244253649Y-104847756D01*
X244292666Y-104886774D01*
X244283227Y-105030274D01*
X244280294Y-105076482D01*
X244275576Y-105169184D01*
X244274421Y-105242089D01*
X244277399Y-105299282D01*
X244285079Y-105344848D01*
X244298027Y-105382873D01*
X244316815Y-105417442D01*
X244342008Y-105452641D01*
X244380482Y-105504932D01*
X244431234Y-105582733D01*
X244470135Y-105653567D01*
X244487275Y-105673770D01*
X244516529Y-105693541D01*
X244520822Y-105695886D01*
X244550917Y-105723807D01*
X244575901Y-105764834D01*
X244582890Y-105780147D01*
X244598716Y-105811518D01*
X244609559Y-105828527D01*
X244611986Y-105831799D01*
X244622980Y-105857341D01*
X244636807Y-105900655D01*
X244651735Y-105955951D01*
X244666035Y-106017436D01*
X244670099Y-106033827D01*
X244682657Y-106068515D01*
X244695654Y-106088278D01*
X244699084Y-106091646D01*
X244712333Y-106116730D01*
X244722501Y-106152680D01*
X244722935Y-106154933D01*
X244732487Y-106194354D01*
X244747441Y-106246530D01*
X244764757Y-106300803D01*
X244771077Y-106319831D01*
X244780371Y-106350839D01*
X244787156Y-106381002D01*
X244791812Y-106414754D01*
X244792187Y-106420136D01*
X244794719Y-106456529D01*
X244796257Y-106510761D01*
G37*
G36*
X238321812Y-105463582D02*
G01*
X238328119Y-105465036D01*
X238339271Y-105480709D01*
X238339777Y-105503696D01*
X238328252Y-105521544D01*
X238320330Y-105520793D01*
X238315371Y-105502983D01*
X238315185Y-105495606D01*
X238310287Y-105477483D01*
X238300021Y-105481799D01*
X238286101Y-105506748D01*
X238270242Y-105550525D01*
X238258616Y-105583189D01*
X238240125Y-105622997D01*
X238223112Y-105647895D01*
X238220848Y-105650132D01*
X238205902Y-105673372D01*
X238212302Y-105686878D01*
X238238294Y-105686227D01*
X238255252Y-105686437D01*
X238257251Y-105698632D01*
X238244066Y-105718231D01*
X238217687Y-105740034D01*
X238196501Y-105759521D01*
X238186568Y-105781247D01*
X238182928Y-105795462D01*
X238165044Y-105817810D01*
X238152709Y-105829441D01*
X238140563Y-105851430D01*
X238133557Y-105876134D01*
X238112778Y-105922345D01*
X238083471Y-105972355D01*
X238057881Y-106012715D01*
X238038923Y-106048310D01*
X238033967Y-106069278D01*
X238041816Y-106078668D01*
X238043007Y-106079100D01*
X238056242Y-106093467D01*
X238054785Y-106111570D01*
X238039389Y-106120479D01*
X238028929Y-106117091D01*
X238015681Y-106097938D01*
X238011778Y-106091242D01*
X238001224Y-106100361D01*
X237984356Y-106133359D01*
X237976694Y-106149934D01*
X237957607Y-106186656D01*
X237933448Y-106226260D01*
X237900568Y-106274508D01*
X237855317Y-106337166D01*
X237849511Y-106345499D01*
X237819387Y-106402892D01*
X237799570Y-106464641D01*
X237796087Y-106479655D01*
X237778049Y-106530152D01*
X237755363Y-106563521D01*
X237737968Y-106579561D01*
X237687675Y-106624674D01*
X237650309Y-106654290D01*
X237621529Y-106670290D01*
X237596995Y-106674555D01*
X237572366Y-106668965D01*
X237543302Y-106655400D01*
X237524481Y-106643360D01*
X237508543Y-106620166D01*
X237501134Y-106581338D01*
X237499845Y-106565036D01*
X237502042Y-106533915D01*
X237514706Y-106505320D01*
X237541605Y-106468775D01*
X237560748Y-106445242D01*
X237588814Y-106411907D01*
X237608518Y-106389929D01*
X237611325Y-106386594D01*
X237622980Y-106359524D01*
X237632277Y-106311958D01*
X237639767Y-106241278D01*
X237642422Y-106206726D01*
X237645732Y-106155314D01*
X237647408Y-106116640D01*
X237647120Y-106097162D01*
X237647737Y-106078837D01*
X237657844Y-106037140D01*
X237677253Y-105981778D01*
X237704273Y-105918048D01*
X237714238Y-105893501D01*
X237731808Y-105835423D01*
X237741768Y-105781293D01*
X237741885Y-105780108D01*
X237750843Y-105725376D01*
X237765198Y-105674163D01*
X237782417Y-105633853D01*
X237799963Y-105611827D01*
X237808531Y-105598224D01*
X237813039Y-105569999D01*
X237817225Y-105532184D01*
X237836643Y-105464969D01*
X238096406Y-105464969D01*
X238099082Y-105482502D01*
X238112729Y-105495611D01*
X238132985Y-105486253D01*
X238141931Y-105474882D01*
X238146405Y-105450425D01*
X238129866Y-105433647D01*
X238122164Y-105431338D01*
X238102804Y-105437068D01*
X238096406Y-105464969D01*
X237836643Y-105464969D01*
X237836815Y-105464374D01*
X237872650Y-105377589D01*
X237882458Y-105354353D01*
X237902796Y-105296391D01*
X237917295Y-105242345D01*
X237923375Y-105216709D01*
X237936568Y-105174259D01*
X237949577Y-105145226D01*
X237950710Y-105143294D01*
X237961563Y-105114443D01*
X237972838Y-105069834D01*
X237982266Y-105018276D01*
X237988481Y-104972406D01*
X237990793Y-104938051D01*
X237987698Y-104918562D01*
X237979032Y-104908362D01*
X237968927Y-104898821D01*
X237976242Y-104887059D01*
X237988660Y-104871299D01*
X238000209Y-104841856D01*
X238009268Y-104816002D01*
X238020551Y-104799364D01*
X238026865Y-104791216D01*
X238032004Y-104766834D01*
X238035548Y-104747348D01*
X238046741Y-104712578D01*
X238062939Y-104670568D01*
X238081414Y-104627620D01*
X238099436Y-104590036D01*
X238114279Y-104564117D01*
X238123212Y-104556166D01*
X238128748Y-104556405D01*
X238139733Y-104542565D01*
X238145333Y-104533736D01*
X238166843Y-104523319D01*
X238175596Y-104525400D01*
X238185354Y-104543078D01*
X238186108Y-104581740D01*
X238186211Y-104584292D01*
X238198353Y-104602440D01*
X238221591Y-104616479D01*
X238243573Y-104618506D01*
X238256444Y-104616968D01*
X238263850Y-104632184D01*
X238261644Y-104642629D01*
X238249906Y-104645024D01*
X238247853Y-104644137D01*
X238246486Y-104652365D01*
X238256346Y-104675825D01*
X238257053Y-104677205D01*
X238271099Y-104711190D01*
X238277140Y-104738424D01*
X238277245Y-104740790D01*
X238286559Y-104770393D01*
X238305492Y-104795861D01*
X238326452Y-104806686D01*
X238336169Y-104814902D01*
X238341132Y-104839291D01*
X238345613Y-104862114D01*
X238359861Y-104879083D01*
X238367259Y-104884338D01*
X238386304Y-104908274D01*
X238406091Y-104943080D01*
X238411294Y-104953317D01*
X238435037Y-104987736D01*
X238456834Y-104999891D01*
X238463079Y-105000948D01*
X238490610Y-105016427D01*
X238526701Y-105046560D01*
X238566669Y-105086447D01*
X238605830Y-105131189D01*
X238639503Y-105175886D01*
X238663005Y-105215636D01*
X238678328Y-105244617D01*
X238697558Y-105272486D01*
X238711647Y-105283258D01*
X238712546Y-105283336D01*
X238730771Y-105293281D01*
X238760424Y-105316636D01*
X238795549Y-105348750D01*
X238800155Y-105353226D01*
X238832393Y-105383963D01*
X238855950Y-105405407D01*
X238866005Y-105413151D01*
X238869246Y-105412215D01*
X238886501Y-105413522D01*
X238889058Y-105424114D01*
X238889294Y-105426863D01*
X238903157Y-105427742D01*
X238927389Y-105423388D01*
X238952394Y-105415848D01*
X238968576Y-105407166D01*
X238971775Y-105402861D01*
X238986097Y-105380552D01*
X239008456Y-105344237D01*
X239035787Y-105299057D01*
X239065025Y-105250155D01*
X239093101Y-105202671D01*
X239116952Y-105161749D01*
X239133511Y-105132529D01*
X239139712Y-105120154D01*
X239138887Y-105118605D01*
X239126832Y-105122254D01*
X239121761Y-105124168D01*
X239113952Y-105115196D01*
X239116566Y-105108591D01*
X239132798Y-105107409D01*
X239136779Y-105108666D01*
X239147309Y-105107977D01*
X239160168Y-105098870D01*
X239178360Y-105078099D01*
X239204888Y-105042420D01*
X239242755Y-104988588D01*
X239265196Y-104959495D01*
X239290757Y-104933472D01*
X239308799Y-104923212D01*
X239320092Y-104920981D01*
X239344036Y-104905411D01*
X239362979Y-104889425D01*
X239406694Y-104871245D01*
X239457543Y-104864117D01*
X239504711Y-104870398D01*
X239512031Y-104873174D01*
X239555503Y-104902366D01*
X239598973Y-104950007D01*
X239638486Y-105010234D01*
X239670091Y-105077185D01*
X239689834Y-105144997D01*
X239691093Y-105150923D01*
X239702335Y-105186184D01*
X239718483Y-105223104D01*
X239735321Y-105252940D01*
X239748634Y-105266950D01*
X239764378Y-105274990D01*
X239790530Y-105291119D01*
X239795072Y-105294186D01*
X239813131Y-105312362D01*
X239809336Y-105328523D01*
X239806348Y-105333197D01*
X239802698Y-105360650D01*
X239810400Y-105407396D01*
X239815108Y-105428785D01*
X239826238Y-105485847D01*
X239835452Y-105540864D01*
X239841073Y-105575537D01*
X239859654Y-105658832D01*
X239887566Y-105746949D01*
X239894143Y-105765524D01*
X239909714Y-105808757D01*
X239921664Y-105839768D01*
X239933624Y-105867654D01*
X239949223Y-105901513D01*
X239957640Y-105921865D01*
X239974445Y-105976334D01*
X239985109Y-106030070D01*
X239989777Y-106058280D01*
X239999966Y-106095987D01*
X240011188Y-106117933D01*
X240022324Y-106137168D01*
X240028594Y-106169700D01*
X240029679Y-106184115D01*
X240036851Y-106224114D01*
X240048492Y-106268603D01*
X240053747Y-106288086D01*
X240063471Y-106342319D01*
X240066529Y-106390966D01*
X240066096Y-106405983D01*
X240065664Y-106443793D01*
X240067981Y-106461632D01*
X240074436Y-106463992D01*
X240086416Y-106455367D01*
X240090176Y-106452346D01*
X240102776Y-106447729D01*
X240105737Y-106465597D01*
X240102864Y-106481691D01*
X240089636Y-106498395D01*
X240081868Y-106503470D01*
X240087033Y-106515568D01*
X240088252Y-106516700D01*
X240097891Y-106538007D01*
X240103405Y-106571290D01*
X240103675Y-106574716D01*
X240111585Y-106608798D01*
X240125329Y-106630672D01*
X240137624Y-106647984D01*
X240144378Y-106678973D01*
X240147767Y-106701898D01*
X240157258Y-106712974D01*
X240160337Y-106713348D01*
X240170138Y-106725854D01*
X240168814Y-106730691D01*
X240154038Y-106735514D01*
X240151201Y-106735495D01*
X240143091Y-106747638D01*
X240142193Y-106772889D01*
X240147920Y-106801914D01*
X240159686Y-106825382D01*
X240167586Y-106849385D01*
X240163575Y-106888105D01*
X240148134Y-106931220D01*
X240123400Y-106970201D01*
X240116998Y-106977729D01*
X240095961Y-106998606D01*
X240075550Y-107006224D01*
X240047647Y-107001657D01*
X240004136Y-106985980D01*
X239947617Y-106964140D01*
X239918431Y-106845247D01*
X239913471Y-106824409D01*
X239899907Y-106760938D01*
X239889064Y-106701046D01*
X239882931Y-106655382D01*
X239868587Y-106584713D01*
X239838330Y-106510406D01*
X239797604Y-106448927D01*
X239782140Y-106424592D01*
X239761319Y-106370755D01*
X239742139Y-106296737D01*
X239725399Y-106205788D01*
X239711902Y-106101158D01*
X239708909Y-106078783D01*
X239701272Y-106043679D01*
X239692908Y-106024520D01*
X239686860Y-106015355D01*
X239680686Y-105988695D01*
X239678101Y-105975365D01*
X239663307Y-105958438D01*
X239651048Y-105943558D01*
X239644871Y-105914567D01*
X239640792Y-105884100D01*
X239629694Y-105850982D01*
X239626621Y-105844572D01*
X239614499Y-105810612D01*
X239603752Y-105769674D01*
X239594565Y-105727581D01*
X239580606Y-105668066D01*
X239568876Y-105627042D01*
X239557758Y-105600096D01*
X239545637Y-105582815D01*
X239530896Y-105570789D01*
X239526341Y-105567891D01*
X239497513Y-105557031D01*
X239467633Y-105564522D01*
X239446377Y-105577406D01*
X239435960Y-105591246D01*
X239435955Y-105591392D01*
X239426924Y-105606280D01*
X239403862Y-105633549D01*
X239371616Y-105668263D01*
X239335033Y-105705490D01*
X239298958Y-105740294D01*
X239268237Y-105767743D01*
X239247717Y-105782902D01*
X239230282Y-105789231D01*
X239192074Y-105798047D01*
X239146152Y-105805234D01*
X239111256Y-105809603D01*
X239070129Y-105815128D01*
X239044344Y-105819060D01*
X238974449Y-105829069D01*
X238898600Y-105833632D01*
X238834533Y-105830596D01*
X238788658Y-105819939D01*
X238778041Y-105815202D01*
X238751182Y-105799711D01*
X238740422Y-105787508D01*
X238740385Y-105786957D01*
X238728453Y-105774488D01*
X238701611Y-105761701D01*
X238672028Y-105745367D01*
X238655307Y-105725020D01*
X238648348Y-105704230D01*
X238621036Y-105632920D01*
X238592227Y-105571076D01*
X238565470Y-105526537D01*
X238559849Y-105518538D01*
X238541669Y-105486009D01*
X238534337Y-105461191D01*
X238530412Y-105446629D01*
X238514037Y-105415288D01*
X238489256Y-105378985D01*
X238470636Y-105352945D01*
X238451566Y-105321302D01*
X238444175Y-105301592D01*
X238439484Y-105291000D01*
X238418818Y-105283258D01*
X238403945Y-105286283D01*
X238400239Y-105300918D01*
X238401278Y-105306304D01*
X238393152Y-105329519D01*
X238373117Y-105351068D01*
X238349872Y-105360640D01*
X238339298Y-105366442D01*
X238322522Y-105388908D01*
X238308417Y-105419044D01*
X238302491Y-105446830D01*
X238303517Y-105450425D01*
X238304707Y-105454596D01*
X238321812Y-105463582D01*
G37*
G36*
X241805500Y-105181958D02*
G01*
X241833257Y-105203092D01*
X241844580Y-105229167D01*
X241850206Y-105252357D01*
X241866220Y-105282660D01*
X241878762Y-105301381D01*
X241880132Y-105309233D01*
X241866220Y-105305250D01*
X241850239Y-105304069D01*
X241844580Y-105322303D01*
X241847215Y-105336904D01*
X241858923Y-105347659D01*
X241862160Y-105348526D01*
X241867827Y-105365914D01*
X241864454Y-105406425D01*
X241863391Y-105414168D01*
X241861971Y-105456639D01*
X241869495Y-105481884D01*
X241871404Y-105485108D01*
X241878210Y-105510924D01*
X241883893Y-105553154D01*
X241887380Y-105604453D01*
X241890969Y-105658499D01*
X241898015Y-105701191D01*
X241907790Y-105720452D01*
X241918052Y-105738285D01*
X241920155Y-105768857D01*
X241923465Y-105804074D01*
X241939003Y-105842033D01*
X241952138Y-105869901D01*
X241953366Y-105903709D01*
X241950640Y-105921439D01*
X241956651Y-105938542D01*
X241980979Y-105961386D01*
X241999362Y-106006595D01*
X241996724Y-106066126D01*
X241994845Y-106082261D01*
X241992561Y-106125193D01*
X241990860Y-106187977D01*
X241989786Y-106267110D01*
X241989378Y-106359088D01*
X241989680Y-106460407D01*
X241990734Y-106567563D01*
X241990798Y-106572390D01*
X241992313Y-106689590D01*
X241993340Y-106783857D01*
X241993754Y-106857916D01*
X241993429Y-106914493D01*
X241992238Y-106956311D01*
X241990055Y-106986095D01*
X241986753Y-107006570D01*
X241982208Y-107020460D01*
X241976291Y-107030491D01*
X241968878Y-107039386D01*
X241939784Y-107065796D01*
X241902738Y-107090138D01*
X241878959Y-107100795D01*
X241857101Y-107101852D01*
X241831841Y-107088447D01*
X241793216Y-107063383D01*
X241760138Y-107042994D01*
X241732839Y-107028081D01*
X241702897Y-107013764D01*
X241665019Y-107000665D01*
X241609146Y-106989861D01*
X241550906Y-106985261D01*
X241499243Y-106987484D01*
X241463102Y-106997148D01*
X241437204Y-107007005D01*
X241421912Y-107000367D01*
X241417164Y-106996458D01*
X241391995Y-106989281D01*
X241355128Y-106986582D01*
X241328036Y-106986462D01*
X241278039Y-106985866D01*
X241212442Y-106984862D01*
X241136609Y-106983533D01*
X241055902Y-106981960D01*
X241016802Y-106981151D01*
X240942355Y-106979389D01*
X240888285Y-106977376D01*
X240850829Y-106974591D01*
X240826222Y-106970509D01*
X240810700Y-106964608D01*
X240800499Y-106956363D01*
X240791855Y-106945253D01*
X240777278Y-106923896D01*
X240762253Y-106892707D01*
X240764270Y-106869288D01*
X240782675Y-106846621D01*
X240794337Y-106837373D01*
X240820836Y-106825243D01*
X240860382Y-106816992D01*
X240919328Y-106810961D01*
X240926602Y-106810394D01*
X240987459Y-106805390D01*
X241046218Y-106800173D01*
X241091081Y-106795785D01*
X241092772Y-106795612D01*
X241127484Y-106793308D01*
X241182345Y-106790999D01*
X241252145Y-106788848D01*
X241331676Y-106787016D01*
X241415728Y-106785666D01*
X241499798Y-106784611D01*
X241578348Y-106782717D01*
X241636621Y-106778605D01*
X241677591Y-106770666D01*
X241704227Y-106757292D01*
X241719502Y-106736876D01*
X241726386Y-106707809D01*
X241727851Y-106668483D01*
X241726869Y-106617290D01*
X241726152Y-106593717D01*
X241722950Y-106541338D01*
X241718239Y-106500008D01*
X241712758Y-106477085D01*
X241708190Y-106463272D01*
X241713117Y-106438444D01*
X241716289Y-106424434D01*
X241718636Y-106388323D01*
X241719723Y-106335288D01*
X241719675Y-106270026D01*
X241718616Y-106197234D01*
X241716670Y-106121607D01*
X241713961Y-106047842D01*
X241710613Y-105980636D01*
X241706751Y-105924685D01*
X241702498Y-105884686D01*
X241697978Y-105865334D01*
X241695082Y-105856110D01*
X241698126Y-105830965D01*
X241699610Y-105810145D01*
X241690270Y-105779625D01*
X241689587Y-105778308D01*
X241682884Y-105757085D01*
X241680410Y-105725221D01*
X241682094Y-105677780D01*
X241687867Y-105609829D01*
X241691826Y-105562599D01*
X241694375Y-105512210D01*
X241694211Y-105475998D01*
X241691209Y-105459670D01*
X241688266Y-105451218D01*
X241687929Y-105422579D01*
X241692907Y-105383280D01*
X241698544Y-105328063D01*
X241691015Y-105286746D01*
X241685868Y-105266098D01*
X241692474Y-105226864D01*
X241714921Y-105192421D01*
X241748306Y-105172542D01*
X241770632Y-105171249D01*
X241805500Y-105181958D01*
G37*
G36*
X238240505Y-104450118D02*
G01*
X238246466Y-104454755D01*
X238232723Y-104457900D01*
X238219659Y-104456989D01*
X238215817Y-104451135D01*
X238220374Y-104448583D01*
X238240505Y-104450118D01*
G37*
%TD*%
D10*
%TO.C,R1*%
X175260000Y-125730000D03*
D11*
X185420000Y-125730000D03*
%TD*%
D12*
%TO.C,REF\u002A\u002A*%
X242570000Y-99695000D03*
%TD*%
D13*
%TO.C,C6*%
X188595000Y-50070000D03*
D10*
X190595000Y-50070000D03*
%TD*%
D14*
%TO.C,SV1(A)1*%
X230540000Y-33065000D03*
D15*
X230540000Y-35605000D03*
X228000000Y-33065000D03*
X228000000Y-35605000D03*
X225460000Y-33065000D03*
X225460000Y-35605000D03*
X222920000Y-33065000D03*
X222920000Y-35605000D03*
X220380000Y-33065000D03*
X220380000Y-35605000D03*
%TD*%
D10*
%TO.C,R10*%
X224155000Y-146685000D03*
D11*
X234315000Y-146685000D03*
%TD*%
D13*
%TO.C,C4*%
X173310113Y-115570000D03*
D10*
X171310113Y-115570000D03*
%TD*%
D16*
%TO.C,Q1*%
X189865000Y-127090000D03*
X189865000Y-131970000D03*
%TD*%
D14*
%TO.C,SV3(C)1*%
X220375000Y-89935000D03*
D15*
X220375000Y-87395000D03*
X222915000Y-89935000D03*
X222915000Y-87395000D03*
X225455000Y-89935000D03*
X225455000Y-87395000D03*
X227995000Y-89935000D03*
X227995000Y-87395000D03*
X230535000Y-89935000D03*
X230535000Y-87395000D03*
%TD*%
D17*
%TO.C,X101*%
X165333700Y-127654800D03*
X165333700Y-121874800D03*
%TD*%
D10*
%TO.C,R4*%
X185420000Y-137160000D03*
D11*
X175260000Y-137160000D03*
%TD*%
D14*
%TO.C,J103*%
X164485000Y-113650000D03*
D15*
X161945000Y-113650000D03*
X164485000Y-111110000D03*
X161945000Y-111110000D03*
X164485000Y-108570000D03*
X161945000Y-108570000D03*
%TD*%
D13*
%TO.C,C5*%
X188595000Y-108585000D03*
D10*
X190595000Y-108585000D03*
%TD*%
%TO.C,R2*%
X185420000Y-129540000D03*
D11*
X175260000Y-129540000D03*
%TD*%
D10*
%TO.C,R4*%
X185420000Y-71660000D03*
D11*
X175260000Y-71660000D03*
%TD*%
D14*
%TO.C,JP3*%
X190500000Y-81170000D03*
D15*
X190500000Y-78630000D03*
X190500000Y-76090000D03*
%TD*%
D10*
%TO.C,R3*%
X185420000Y-133350000D03*
D11*
X175260000Y-133350000D03*
%TD*%
D13*
%TO.C,C6*%
X188595000Y-115570000D03*
D10*
X190595000Y-115570000D03*
%TD*%
D16*
%TO.C,Q1*%
X189865000Y-61590000D03*
X189865000Y-66470000D03*
%TD*%
D12*
%TO.C,*%
X242570000Y-88805000D03*
%TD*%
D10*
%TO.C,C3*%
X183515000Y-51975000D03*
X178515000Y-51975000D03*
%TD*%
D18*
%TO.C,S1*%
X171450000Y-66540000D03*
X171450000Y-64040000D03*
X171450000Y-61540000D03*
%TD*%
D12*
%TO.C,REF\u002A\u002A*%
X242570000Y-34195000D03*
%TD*%
D10*
%TO.C,R9*%
X243205000Y-44990000D03*
D11*
X233045000Y-44990000D03*
%TD*%
D12*
%TO.C,*%
X242570000Y-154305000D03*
%TD*%
D10*
%TO.C,R8*%
X233045000Y-78010000D03*
D11*
X243205000Y-78010000D03*
%TD*%
D13*
%TO.C,C4*%
X173310113Y-50070000D03*
D10*
X171310113Y-50070000D03*
%TD*%
D19*
%TO.C,X102*%
X237807172Y-139025000D03*
X237807172Y-115025000D03*
%TD*%
D14*
%TO.C,J5*%
X164325000Y-79915000D03*
D15*
X161785000Y-79915000D03*
X164325000Y-77375000D03*
X161785000Y-77375000D03*
X164325000Y-74835000D03*
X161785000Y-74835000D03*
X164325000Y-72295000D03*
X161785000Y-72295000D03*
X164325000Y-69755000D03*
X161785000Y-69755000D03*
%TD*%
D14*
%TO.C,SV1(A)1*%
X230540000Y-98565000D03*
D15*
X230540000Y-101105000D03*
X228000000Y-98565000D03*
X228000000Y-101105000D03*
X225460000Y-98565000D03*
X225460000Y-101105000D03*
X222920000Y-98565000D03*
X222920000Y-101105000D03*
X220380000Y-98565000D03*
X220380000Y-101105000D03*
%TD*%
D10*
%TO.C,R9*%
X243205000Y-110490000D03*
D11*
X233045000Y-110490000D03*
%TD*%
D10*
%TO.C,R2*%
X185420000Y-64040000D03*
D11*
X175260000Y-64040000D03*
%TD*%
D10*
%TO.C,R3*%
X185420000Y-67850000D03*
D11*
X175260000Y-67850000D03*
%TD*%
D12*
%TO.C,*%
X163195000Y-34195000D03*
%TD*%
D13*
%TO.C,IC1*%
X195240000Y-37300000D03*
D11*
X195240000Y-39840000D03*
X195240000Y-42380000D03*
X195240000Y-44920000D03*
X195240000Y-47460000D03*
X195240000Y-50000000D03*
X195240000Y-52540000D03*
X195240000Y-55080000D03*
X195240000Y-57620000D03*
X195240000Y-60160000D03*
X195240000Y-62700000D03*
X195240000Y-65240000D03*
X195240000Y-67780000D03*
X195240000Y-70320000D03*
X195240000Y-72860000D03*
X195240000Y-75400000D03*
X195240000Y-77940000D03*
X195240000Y-80480000D03*
X195240000Y-83020000D03*
X195240000Y-85560000D03*
X210480000Y-85560000D03*
X210480000Y-83020000D03*
X210480000Y-80480000D03*
X210480000Y-77940000D03*
X210480000Y-75400000D03*
X210480000Y-72860000D03*
X210480000Y-70320000D03*
X210480000Y-67780000D03*
X210480000Y-65240000D03*
X210480000Y-62700000D03*
X210480000Y-60160000D03*
X210480000Y-57620000D03*
X210480000Y-55080000D03*
X210480000Y-52540000D03*
X210480000Y-50000000D03*
X210480000Y-47460000D03*
X210480000Y-44920000D03*
X210480000Y-42380000D03*
X210480000Y-39840000D03*
X210480000Y-37300000D03*
%TD*%
D19*
%TO.C,X2*%
X237807172Y-49525000D03*
X237807172Y-73525000D03*
%TD*%
D10*
%TO.C,R5*%
X175260000Y-56420000D03*
D11*
X185420000Y-56420000D03*
%TD*%
D20*
%TO.C,mouse-bite-3mm-slot*%
X239512000Y-95000000D03*
X237988000Y-95000000D03*
X239512000Y-93500000D03*
X240274000Y-93500000D03*
X237988000Y-93500000D03*
X238738000Y-93500000D03*
X238738000Y-95000000D03*
X240274000Y-95000000D03*
X237238000Y-93500000D03*
X237238000Y-95000000D03*
%TD*%
D21*
%TO.C,D1*%
X180335000Y-78645000D03*
D22*
X182875000Y-78645000D03*
%TD*%
D10*
%TO.C,R1*%
X175260000Y-60230000D03*
D11*
X185420000Y-60230000D03*
%TD*%
D10*
%TO.C,R5*%
X175260000Y-121920000D03*
D11*
X185420000Y-121920000D03*
%TD*%
D10*
%TO.C,C3*%
X183515000Y-117475000D03*
X178515000Y-117475000D03*
%TD*%
%TO.C,R10*%
X224155000Y-81185000D03*
D11*
X234315000Y-81185000D03*
%TD*%
D23*
%TO.C,X3*%
X173355000Y-43085000D03*
D24*
X171355000Y-43085000D03*
%TD*%
D14*
%TO.C,JP103*%
X190500000Y-146670000D03*
D15*
X190500000Y-144130000D03*
X190500000Y-141590000D03*
%TD*%
D10*
%TO.C,R7*%
X215265000Y-110490000D03*
D11*
X225425000Y-110490000D03*
%TD*%
D20*
%TO.C,mouse-bite-3mm-slot*%
X202738000Y-95000000D03*
X203488000Y-93500000D03*
X203488000Y-95000000D03*
X204262000Y-93500000D03*
X201988000Y-95000000D03*
X205024000Y-93500000D03*
X202738000Y-93500000D03*
X205024000Y-95000000D03*
X201988000Y-93500000D03*
X204262000Y-95000000D03*
%TD*%
D10*
%TO.C,C1*%
X191135000Y-137795000D03*
X188635000Y-137795000D03*
%TD*%
D12*
%TO.C,*%
X163195000Y-99695000D03*
%TD*%
D14*
%TO.C,SV4(D)1*%
X174655000Y-89915000D03*
D15*
X174655000Y-87375000D03*
X177195000Y-89915000D03*
X177195000Y-87375000D03*
X179735000Y-89915000D03*
X179735000Y-87375000D03*
X182275000Y-89915000D03*
X182275000Y-87375000D03*
X184815000Y-89915000D03*
X184815000Y-87375000D03*
%TD*%
D10*
%TO.C,R8*%
X233045000Y-143510000D03*
D11*
X243205000Y-143510000D03*
%TD*%
D19*
%TO.C,S2*%
X175970000Y-80260000D03*
X169470000Y-80260000D03*
X169470000Y-75760000D03*
X175970000Y-75760000D03*
%TD*%
D14*
%TO.C,J3*%
X164485000Y-48150000D03*
D15*
X161945000Y-48150000D03*
X164485000Y-45610000D03*
X161945000Y-45610000D03*
X164485000Y-43070000D03*
X161945000Y-43070000D03*
%TD*%
D21*
%TO.C,D1*%
X180335000Y-144145000D03*
D22*
X182875000Y-144145000D03*
%TD*%
D12*
%TO.C,*%
X163195000Y-154305000D03*
%TD*%
D10*
%TO.C,R11*%
X215265000Y-78010000D03*
D11*
X225425000Y-78010000D03*
%TD*%
D14*
%TO.C,J105*%
X164325000Y-145415000D03*
D15*
X161785000Y-145415000D03*
X164325000Y-142875000D03*
X161785000Y-142875000D03*
X164325000Y-140335000D03*
X161785000Y-140335000D03*
X164325000Y-137795000D03*
X161785000Y-137795000D03*
X164325000Y-135255000D03*
X161785000Y-135255000D03*
%TD*%
D10*
%TO.C,R6*%
X234315000Y-41815000D03*
D11*
X224155000Y-41815000D03*
%TD*%
D23*
%TO.C,X103*%
X173355000Y-108585000D03*
D24*
X171355000Y-108585000D03*
%TD*%
D14*
%TO.C,SV3(C)1*%
X220375000Y-155435000D03*
D15*
X220375000Y-152895000D03*
X222915000Y-155435000D03*
X222915000Y-152895000D03*
X225455000Y-155435000D03*
X225455000Y-152895000D03*
X227995000Y-155435000D03*
X227995000Y-152895000D03*
X230535000Y-155435000D03*
X230535000Y-152895000D03*
%TD*%
D12*
%TO.C,*%
X163195000Y-88805000D03*
%TD*%
D10*
%TO.C,C2*%
X191115000Y-121285000D03*
X188615000Y-121285000D03*
%TD*%
D14*
%TO.C,SV2(B)1*%
X184755000Y-98585000D03*
D15*
X184755000Y-101125000D03*
X182215000Y-98585000D03*
X182215000Y-101125000D03*
X179675000Y-98585000D03*
X179675000Y-101125000D03*
X177135000Y-98585000D03*
X177135000Y-101125000D03*
X174595000Y-98585000D03*
X174595000Y-101125000D03*
%TD*%
D20*
%TO.C,mouse-bite-3mm-slot*%
X168512000Y-95000000D03*
X166976000Y-93500000D03*
X167750000Y-93500000D03*
X165476000Y-95000000D03*
X168512000Y-93500000D03*
X165476000Y-93500000D03*
X166226000Y-95000000D03*
X166226000Y-93500000D03*
X167750000Y-95000000D03*
X166976000Y-95000000D03*
%TD*%
D13*
%TO.C,C5*%
X188595000Y-43085000D03*
D10*
X190595000Y-43085000D03*
%TD*%
%TO.C,C2*%
X191115000Y-55785000D03*
X188615000Y-55785000D03*
%TD*%
D19*
%TO.C,S2*%
X169470000Y-145760000D03*
X175970000Y-145760000D03*
X175970000Y-141260000D03*
X169470000Y-141260000D03*
%TD*%
D10*
%TO.C,R11*%
X215265000Y-143510000D03*
D11*
X225425000Y-143510000D03*
%TD*%
D14*
%TO.C,SV4(D)1*%
X174655000Y-155415000D03*
D15*
X174655000Y-152875000D03*
X177195000Y-155415000D03*
X177195000Y-152875000D03*
X179735000Y-155415000D03*
X179735000Y-152875000D03*
X182275000Y-155415000D03*
X182275000Y-152875000D03*
X184815000Y-155415000D03*
X184815000Y-152875000D03*
%TD*%
D10*
%TO.C,R7*%
X215265000Y-44990000D03*
D11*
X225425000Y-44990000D03*
%TD*%
D14*
%TO.C,SV2(B)1*%
X184755000Y-33085000D03*
D15*
X184755000Y-35625000D03*
X182215000Y-33085000D03*
X182215000Y-35625000D03*
X179675000Y-33085000D03*
X179675000Y-35625000D03*
X177135000Y-33085000D03*
X177135000Y-35625000D03*
X174595000Y-33085000D03*
X174595000Y-35625000D03*
%TD*%
D13*
%TO.C,*%
X195240000Y-102800000D03*
D11*
X195240000Y-105340000D03*
X195240000Y-107880000D03*
X195240000Y-110420000D03*
X195240000Y-112960000D03*
X195240000Y-115500000D03*
X195240000Y-118040000D03*
X195240000Y-120580000D03*
X195240000Y-123120000D03*
X195240000Y-125660000D03*
X195240000Y-128200000D03*
X195240000Y-130740000D03*
X195240000Y-133280000D03*
X195240000Y-135820000D03*
X195240000Y-138360000D03*
X195240000Y-140900000D03*
X195240000Y-143440000D03*
X195240000Y-145980000D03*
X195240000Y-148520000D03*
X195240000Y-151060000D03*
X210480000Y-151060000D03*
X210480000Y-148520000D03*
X210480000Y-145980000D03*
X210480000Y-143440000D03*
X210480000Y-140900000D03*
X210480000Y-138360000D03*
X210480000Y-135820000D03*
X210480000Y-133280000D03*
X210480000Y-130740000D03*
X210480000Y-128200000D03*
X210480000Y-125660000D03*
X210480000Y-123120000D03*
X210480000Y-120580000D03*
X210480000Y-118040000D03*
X210480000Y-115500000D03*
X210480000Y-112960000D03*
X210480000Y-110420000D03*
X210480000Y-107880000D03*
X210480000Y-105340000D03*
X210480000Y-102800000D03*
%TD*%
D10*
%TO.C,R6*%
X234315000Y-107315000D03*
D11*
X224155000Y-107315000D03*
%TD*%
D18*
%TO.C,S1*%
X171450000Y-132040000D03*
X171450000Y-129540000D03*
X171450000Y-127040000D03*
%TD*%
D10*
%TO.C,C1*%
X191135000Y-72295000D03*
X188635000Y-72295000D03*
%TD*%
D25*
%TO.C,C13*%
X187325000Y-153442500D03*
X187325000Y-155167500D03*
%TD*%
D26*
%TO.C,S3*%
X181455002Y-132130800D03*
X179705000Y-132130800D03*
X177955001Y-132130800D03*
X181454999Y-126949200D03*
X179705000Y-126949200D03*
X177954998Y-126949200D03*
%TD*%
D25*
%TO.C,C14*%
X233045000Y-153442500D03*
X233045000Y-155167500D03*
%TD*%
D27*
%TO.C,D2*%
X167422500Y-118745000D03*
X170397500Y-118745000D03*
%TD*%
D28*
%TO.C,C11*%
X217205000Y-100557500D03*
X217205000Y-98832500D03*
%TD*%
%TO.C,C12*%
X172085000Y-100557500D03*
X172085000Y-98832500D03*
%TD*%
D29*
%TO.C,C7*%
X214665000Y-101257500D03*
X214665000Y-98132500D03*
%TD*%
D30*
%TO.C,C9*%
X235585000Y-152742500D03*
X235585000Y-155867500D03*
%TD*%
D29*
%TO.C,C8*%
X169545000Y-101257500D03*
X169545000Y-98132500D03*
%TD*%
D30*
%TO.C,C10*%
X189865000Y-152742500D03*
X189865000Y-155867500D03*
%TD*%
D31*
%TO.C,R12*%
X175625000Y-118745000D03*
X173625000Y-118745000D03*
%TD*%
D32*
%TO.C,IC3*%
X181610000Y-112965000D03*
X180340000Y-112965000D03*
X179070000Y-112965000D03*
X177800000Y-112965000D03*
X177800000Y-108015000D03*
X179070000Y-108015000D03*
X180340000Y-108015000D03*
X181610000Y-108015000D03*
%TD*%
M02*
