%TF.GenerationSoftware,KiCad,Pcbnew,(6.0.4)*%
%TF.CreationDate,2023-01-10T10:28:08+00:00*%
%TF.ProjectId,il-flatto,696c2d66-6c61-4747-946f-2e6b69636164,rev?*%
%TF.SameCoordinates,Original*%
%TF.FileFunction,Paste,Top*%
%TF.FilePolarity,Positive*%
%FSLAX46Y46*%
G04 Gerber Fmt 4.6, Leading zero omitted, Abs format (unit mm)*
G04 Created by KiCad (PCBNEW (6.0.4)) date 2023-01-10 10:28:08*
%MOMM*%
%LPD*%
G01*
G04 APERTURE LIST*
G04 Aperture macros list*
%AMRoundRect*
0 Rectangle with rounded corners*
0 $1 Rounding radius*
0 $2 $3 $4 $5 $6 $7 $8 $9 X,Y pos of 4 corners*
0 Add a 4 corners polygon primitive as box body*
4,1,4,$2,$3,$4,$5,$6,$7,$8,$9,$2,$3,0*
0 Add four circle primitives for the rounded corners*
1,1,$1+$1,$2,$3*
1,1,$1+$1,$4,$5*
1,1,$1+$1,$6,$7*
1,1,$1+$1,$8,$9*
0 Add four rect primitives between the rounded corners*
20,1,$1+$1,$2,$3,$4,$5,0*
20,1,$1+$1,$4,$5,$6,$7,0*
20,1,$1+$1,$6,$7,$8,$9,0*
20,1,$1+$1,$8,$9,$2,$3,0*%
G04 Aperture macros list end*
%ADD10C,1.505000*%
%ADD11R,0.550000X0.550000*%
%ADD12RoundRect,0.135000X-0.135000X-0.185000X0.135000X-0.185000X0.135000X0.185000X-0.135000X0.185000X0*%
%ADD13RoundRect,0.225000X0.250000X-0.225000X0.250000X0.225000X-0.250000X0.225000X-0.250000X-0.225000X0*%
%ADD14RoundRect,0.140000X-0.170000X0.140000X-0.170000X-0.140000X0.170000X-0.140000X0.170000X0.140000X0*%
%ADD15RoundRect,0.140000X0.140000X0.170000X-0.140000X0.170000X-0.140000X-0.170000X0.140000X-0.170000X0*%
%ADD16R,0.609600X0.406400*%
%ADD17R,1.193800X2.006600*%
%ADD18RoundRect,0.135000X0.135000X0.185000X-0.135000X0.185000X-0.135000X-0.185000X0.135000X-0.185000X0*%
%ADD19RoundRect,0.225000X-0.250000X0.225000X-0.250000X-0.225000X0.250000X-0.225000X0.250000X0.225000X0*%
%ADD20R,1.150000X0.600000*%
%ADD21R,1.150000X0.300000*%
%ADD22R,2.000000X2.180000*%
%ADD23RoundRect,0.140000X0.170000X-0.140000X0.170000X0.140000X-0.170000X0.140000X-0.170000X-0.140000X0*%
%ADD24RoundRect,0.250000X-0.275000X-0.275000X0.275000X-0.275000X0.275000X0.275000X-0.275000X0.275000X0*%
%ADD25RoundRect,0.062500X-0.475000X-0.062500X0.475000X-0.062500X0.475000X0.062500X-0.475000X0.062500X0*%
%ADD26RoundRect,0.062500X-0.062500X-0.475000X0.062500X-0.475000X0.062500X0.475000X-0.062500X0.475000X0*%
%ADD27R,1.500000X0.550000*%
%ADD28RoundRect,0.135000X0.185000X-0.135000X0.185000X0.135000X-0.185000X0.135000X-0.185000X-0.135000X0*%
%ADD29R,1.016000X0.508000*%
%ADD30R,0.710000X0.580000*%
%ADD31R,0.750000X0.300000*%
%ADD32RoundRect,0.140000X-0.140000X-0.170000X0.140000X-0.170000X0.140000X0.170000X-0.140000X0.170000X0*%
%ADD33RoundRect,0.218750X-0.256250X0.218750X-0.256250X-0.218750X0.256250X-0.218750X0.256250X0.218750X0*%
%ADD34R,1.200000X1.400000*%
%ADD35RoundRect,0.218750X-0.218750X-0.256250X0.218750X-0.256250X0.218750X0.256250X-0.218750X0.256250X0*%
%ADD36R,1.752600X0.812800*%
%ADD37R,1.752600X1.193800*%
%ADD38RoundRect,0.135000X-0.185000X0.135000X-0.185000X-0.135000X0.185000X-0.135000X0.185000X0.135000X0*%
G04 APERTURE END LIST*
D10*
X243336903Y-154297527D02*
G75*
G03*
X243336903Y-154297527I-752500J0D01*
G01*
X163953755Y-99691764D02*
G75*
G03*
X163953755Y-99691764I-752500J0D01*
G01*
D11*
%TO.C,D210*%
X235253391Y-137432490D03*
X235253391Y-136482490D03*
X236203391Y-136482490D03*
X236203391Y-137432490D03*
%TD*%
%TO.C,D211*%
X231253391Y-137432490D03*
X231253391Y-136482490D03*
X232203391Y-136482490D03*
X232203391Y-137432490D03*
%TD*%
D12*
%TO.C,R110*%
X229029800Y-146685000D03*
X230049800Y-146685000D03*
%TD*%
D13*
%TO.C,C304*%
X241668014Y-125700419D03*
X241668014Y-124150419D03*
%TD*%
D11*
%TO.C,D232*%
X216193014Y-124492419D03*
X216193014Y-125442419D03*
X215243014Y-125442419D03*
X215243014Y-124492419D03*
%TD*%
%TO.C,D258*%
X235257000Y-113425000D03*
X235257000Y-112475000D03*
X236207000Y-112475000D03*
X236207000Y-113425000D03*
%TD*%
%TO.C,D250*%
X224192614Y-116482082D03*
X224192614Y-117432082D03*
X223242614Y-117432082D03*
X223242614Y-116482082D03*
%TD*%
D14*
%TO.C,C113*%
X187299600Y-153799600D03*
X187299600Y-154759600D03*
%TD*%
D11*
%TO.C,D249*%
X220192614Y-116482082D03*
X220192614Y-117432082D03*
X219242614Y-117432082D03*
X219242614Y-116482082D03*
%TD*%
D12*
%TO.C,R107*%
X219962000Y-110464600D03*
X220982000Y-110464600D03*
%TD*%
D15*
%TO.C,C102*%
X192834200Y-126873000D03*
X191874200Y-126873000D03*
%TD*%
D11*
%TO.C,D261*%
X223257000Y-113425000D03*
X223257000Y-112475000D03*
X224207000Y-112475000D03*
X224207000Y-113425000D03*
%TD*%
%TO.C,D252*%
X232192614Y-116482082D03*
X232192614Y-117432082D03*
X231242614Y-117432082D03*
X231242614Y-116482082D03*
%TD*%
D16*
%TO.C,U102*%
X177355149Y-113220149D03*
X177355149Y-114170150D03*
X177355149Y-115120151D03*
X179895149Y-115120151D03*
X179895149Y-114170150D03*
X179895149Y-113220149D03*
D17*
X178625149Y-114170150D03*
%TD*%
D11*
%TO.C,D227*%
X231247391Y-129428490D03*
X231247391Y-128478490D03*
X232197391Y-128478490D03*
X232197391Y-129428490D03*
%TD*%
D18*
%TO.C,R101*%
X180850000Y-125095000D03*
X179830000Y-125095000D03*
%TD*%
D19*
%TO.C,C303*%
X217784575Y-128155175D03*
X217784575Y-129705175D03*
%TD*%
D11*
%TO.C,D200*%
X216203391Y-140482490D03*
X216203391Y-141432490D03*
X215253391Y-141432490D03*
X215253391Y-140482490D03*
%TD*%
D20*
%TO.C,X101*%
X166408700Y-121564800D03*
X166408700Y-122364800D03*
D21*
X166408700Y-123514800D03*
X166408700Y-124514800D03*
X166408700Y-125014800D03*
X166408700Y-126014800D03*
D20*
X166408700Y-127964800D03*
X166408700Y-127164800D03*
D21*
X166408700Y-126514800D03*
X166408700Y-125514800D03*
X166408700Y-124014800D03*
X166408700Y-123014800D03*
D22*
X165833700Y-119654800D03*
X165833700Y-129874800D03*
X161903700Y-119654800D03*
X161903700Y-129874800D03*
%TD*%
D11*
%TO.C,D221*%
X236194138Y-132486487D03*
X236194138Y-133436487D03*
X235244138Y-133436487D03*
X235244138Y-132486487D03*
%TD*%
D18*
%TO.C,R106*%
X229922800Y-107315000D03*
X228902800Y-107315000D03*
%TD*%
D23*
%TO.C,C108*%
X170815000Y-100175000D03*
X170815000Y-99215000D03*
%TD*%
D24*
%TO.C,U101*%
X203367400Y-126481600D03*
X200767400Y-126481600D03*
X204667400Y-125181600D03*
X202067400Y-126481600D03*
X203367400Y-125181600D03*
X200767400Y-127781600D03*
X203367400Y-123881600D03*
X204667400Y-126481600D03*
X203367400Y-127781600D03*
X204667400Y-123881600D03*
X204667400Y-127781600D03*
X200767400Y-125181600D03*
X202067400Y-127781600D03*
X202067400Y-123881600D03*
X202067400Y-125181600D03*
X200767400Y-123881600D03*
D25*
X199379900Y-123331600D03*
X199379900Y-123831600D03*
X199379900Y-124331600D03*
X199379900Y-124831600D03*
X199379900Y-125331600D03*
X199379900Y-125831600D03*
X199379900Y-126331600D03*
X199379900Y-126831600D03*
X199379900Y-127331600D03*
X199379900Y-127831600D03*
X199379900Y-128331600D03*
D26*
X200217400Y-129169100D03*
X200717400Y-129169100D03*
X201217400Y-129169100D03*
X201717400Y-129169100D03*
X202217400Y-129169100D03*
X202717400Y-129169100D03*
X203217400Y-129169100D03*
X203717400Y-129169100D03*
X204217400Y-129169100D03*
X204717400Y-129169100D03*
X205217400Y-129169100D03*
D25*
X206054900Y-128331600D03*
X206054900Y-127831600D03*
X206054900Y-127331600D03*
X206054900Y-126831600D03*
X206054900Y-126331600D03*
X206054900Y-125831600D03*
X206054900Y-125331600D03*
X206054900Y-124831600D03*
X206054900Y-124331600D03*
X206054900Y-123831600D03*
X206054900Y-123331600D03*
D26*
X205217400Y-122494100D03*
X204717400Y-122494100D03*
X204217400Y-122494100D03*
X203717400Y-122494100D03*
X203217400Y-122494100D03*
X202717400Y-122494100D03*
X202217400Y-122494100D03*
X201717400Y-122494100D03*
X201217400Y-122494100D03*
X200717400Y-122494100D03*
X200217400Y-122494100D03*
%TD*%
D14*
%TO.C,C110*%
X188595000Y-153825000D03*
X188595000Y-154785000D03*
%TD*%
D27*
%TO.C,S102*%
X172720000Y-145313022D03*
X172720000Y-142063022D03*
%TD*%
D12*
%TO.C,R202*%
X166495000Y-132080000D03*
X167515000Y-132080000D03*
%TD*%
D11*
%TO.C,D231*%
X215247391Y-129428490D03*
X215247391Y-128478490D03*
X216197391Y-128478490D03*
X216197391Y-129428490D03*
%TD*%
%TO.C,D206*%
X240203391Y-140482490D03*
X240203391Y-141432490D03*
X239253391Y-141432490D03*
X239253391Y-140482490D03*
%TD*%
%TO.C,D201*%
X220203391Y-140482490D03*
X220203391Y-141432490D03*
X219253391Y-141432490D03*
X219253391Y-140482490D03*
%TD*%
%TO.C,D233*%
X220193014Y-124492419D03*
X220193014Y-125442419D03*
X219243014Y-125442419D03*
X219243014Y-124492419D03*
%TD*%
%TO.C,D253*%
X236192614Y-116482082D03*
X236192614Y-117432082D03*
X235242614Y-117432082D03*
X235242614Y-116482082D03*
%TD*%
%TO.C,D208*%
X243253391Y-137432490D03*
X243253391Y-136482490D03*
X244203391Y-136482490D03*
X244203391Y-137432490D03*
%TD*%
%TO.C,D255*%
X244192614Y-116482082D03*
X244192614Y-117432082D03*
X243242614Y-117432082D03*
X243242614Y-116482082D03*
%TD*%
D23*
%TO.C,C205*%
X209000000Y-127230000D03*
X209000000Y-126270000D03*
%TD*%
D19*
%TO.C,C305*%
X217769457Y-120221189D03*
X217769457Y-121771189D03*
%TD*%
D23*
%TO.C,C107*%
X217840000Y-100175000D03*
X217840000Y-99215000D03*
%TD*%
D11*
%TO.C,D254*%
X240192614Y-116482082D03*
X240192614Y-117432082D03*
X239242614Y-117432082D03*
X239242614Y-116482082D03*
%TD*%
%TO.C,D251*%
X228192614Y-116482082D03*
X228192614Y-117432082D03*
X227242614Y-117432082D03*
X227242614Y-116482082D03*
%TD*%
%TO.C,D228*%
X227247391Y-129428490D03*
X227247391Y-128478490D03*
X228197391Y-128478490D03*
X228197391Y-129428490D03*
%TD*%
%TO.C,D212*%
X227253391Y-137432490D03*
X227253391Y-136482490D03*
X228203391Y-136482490D03*
X228203391Y-137432490D03*
%TD*%
%TO.C,D244*%
X227244457Y-121429189D03*
X227244457Y-120479189D03*
X228194457Y-120479189D03*
X228194457Y-121429189D03*
%TD*%
%TO.C,D263*%
X215257000Y-113425000D03*
X215257000Y-112475000D03*
X216207000Y-112475000D03*
X216207000Y-113425000D03*
%TD*%
%TO.C,D204*%
X232203391Y-140482490D03*
X232203391Y-141432490D03*
X231253391Y-141432490D03*
X231253391Y-140482490D03*
%TD*%
%TO.C,D219*%
X228194138Y-132486487D03*
X228194138Y-133436487D03*
X227244138Y-133436487D03*
X227244138Y-132486487D03*
%TD*%
D14*
%TO.C,C109*%
X234315000Y-153825000D03*
X234315000Y-154785000D03*
%TD*%
D11*
%TO.C,D218*%
X224194138Y-132486487D03*
X224194138Y-133436487D03*
X223244138Y-133436487D03*
X223244138Y-132486487D03*
%TD*%
%TO.C,D225*%
X239247391Y-129428490D03*
X239247391Y-128478490D03*
X240197391Y-128478490D03*
X240197391Y-129428490D03*
%TD*%
%TO.C,D238*%
X240193014Y-124492419D03*
X240193014Y-125442419D03*
X239243014Y-125442419D03*
X239243014Y-124492419D03*
%TD*%
%TO.C,D241*%
X239244457Y-121429189D03*
X239244457Y-120479189D03*
X240194457Y-120479189D03*
X240194457Y-121429189D03*
%TD*%
%TO.C,D246*%
X219244457Y-121429189D03*
X219244457Y-120479189D03*
X220194457Y-120479189D03*
X220194457Y-121429189D03*
%TD*%
D28*
%TO.C,R203*%
X177800000Y-133225000D03*
X177800000Y-132205000D03*
%TD*%
D19*
%TO.C,C307*%
X217782000Y-112133000D03*
X217782000Y-113683000D03*
%TD*%
D23*
%TO.C,C111*%
X216570000Y-100175000D03*
X216570000Y-99215000D03*
%TD*%
D15*
%TO.C,C101*%
X192758000Y-132283200D03*
X191798000Y-132283200D03*
%TD*%
D11*
%TO.C,D224*%
X243247391Y-129428490D03*
X243247391Y-128478490D03*
X244197391Y-128478490D03*
X244197391Y-129428490D03*
%TD*%
D13*
%TO.C,C306*%
X241667614Y-117690082D03*
X241667614Y-116140082D03*
%TD*%
D28*
%TO.C,R204*%
X179070000Y-133225000D03*
X179070000Y-132205000D03*
%TD*%
D11*
%TO.C,D262*%
X219257000Y-113425000D03*
X219257000Y-112475000D03*
X220207000Y-112475000D03*
X220207000Y-113425000D03*
%TD*%
D12*
%TO.C,R111*%
X219962000Y-143510000D03*
X220982000Y-143510000D03*
%TD*%
D11*
%TO.C,D240*%
X243244457Y-121429189D03*
X243244457Y-120479189D03*
X244194457Y-120479189D03*
X244194457Y-121429189D03*
%TD*%
D15*
%TO.C,C106*%
X190345000Y-113665000D03*
X189385000Y-113665000D03*
%TD*%
D11*
%TO.C,D229*%
X223247391Y-129428490D03*
X223247391Y-128478490D03*
X224197391Y-128478490D03*
X224197391Y-129428490D03*
%TD*%
D15*
%TO.C,C105*%
X190075000Y-110500000D03*
X189115000Y-110500000D03*
%TD*%
D28*
%TO.C,R112*%
X168910000Y-115445000D03*
X168910000Y-114425000D03*
%TD*%
D29*
%TO.C,S103*%
X182980200Y-129040001D03*
X177189000Y-129040001D03*
X182980200Y-130039999D03*
X177189000Y-130039999D03*
%TD*%
D18*
%TO.C,R109*%
X238685800Y-110464600D03*
X237665800Y-110464600D03*
%TD*%
D23*
%TO.C,C112*%
X172110400Y-100175000D03*
X172110400Y-99215000D03*
%TD*%
D11*
%TO.C,D245*%
X223244457Y-121429189D03*
X223244457Y-120479189D03*
X224194457Y-120479189D03*
X224194457Y-121429189D03*
%TD*%
D30*
%TO.C,U103*%
X171887500Y-112122500D03*
X171012500Y-111397500D03*
X171012500Y-112122500D03*
X171887500Y-111397500D03*
D31*
X172900000Y-112510000D03*
X172900000Y-112010000D03*
X172900000Y-111510000D03*
X172900000Y-111010000D03*
X170000000Y-111010000D03*
X170000000Y-111510000D03*
X170000000Y-112010000D03*
X170000000Y-112510000D03*
%TD*%
D11*
%TO.C,D215*%
X215253391Y-137432490D03*
X215253391Y-136482490D03*
X216203391Y-136482490D03*
X216203391Y-137432490D03*
%TD*%
D18*
%TO.C,R103*%
X178945000Y-135255000D03*
X177925000Y-135255000D03*
%TD*%
D12*
%TO.C,R108*%
X237742000Y-143510000D03*
X238762000Y-143510000D03*
%TD*%
D14*
%TO.C,C103*%
X193497200Y-124564200D03*
X193497200Y-125524200D03*
%TD*%
D32*
%TO.C,C104*%
X171808200Y-117475000D03*
X172768200Y-117475000D03*
%TD*%
D11*
%TO.C,D226*%
X235247391Y-129428490D03*
X235247391Y-128478490D03*
X236197391Y-128478490D03*
X236197391Y-129428490D03*
%TD*%
%TO.C,D213*%
X223253391Y-137432490D03*
X223253391Y-136482490D03*
X224203391Y-136482490D03*
X224203391Y-137432490D03*
%TD*%
%TO.C,D239*%
X244193014Y-124492419D03*
X244193014Y-125442419D03*
X243243014Y-125442419D03*
X243243014Y-124492419D03*
%TD*%
D33*
%TO.C,D102*%
X168910000Y-116687500D03*
X168910000Y-118262500D03*
%TD*%
D11*
%TO.C,D202*%
X224203391Y-140482490D03*
X224203391Y-141432490D03*
X223253391Y-141432490D03*
X223253391Y-140482490D03*
%TD*%
%TO.C,D248*%
X216192614Y-116482082D03*
X216192614Y-117432082D03*
X215242614Y-117432082D03*
X215242614Y-116482082D03*
%TD*%
%TO.C,D257*%
X239257000Y-113425000D03*
X239257000Y-112475000D03*
X240207000Y-112475000D03*
X240207000Y-113425000D03*
%TD*%
D34*
%TO.C,Q101*%
X193178800Y-130665400D03*
X193178800Y-128465400D03*
X191478800Y-128465400D03*
X191478800Y-130665400D03*
%TD*%
D11*
%TO.C,D230*%
X219247391Y-129428490D03*
X219247391Y-128478490D03*
X220197391Y-128478490D03*
X220197391Y-129428490D03*
%TD*%
%TO.C,D220*%
X232194138Y-132486487D03*
X232194138Y-133436487D03*
X231244138Y-133436487D03*
X231244138Y-132486487D03*
%TD*%
%TO.C,D222*%
X240194138Y-132486487D03*
X240194138Y-133436487D03*
X239244138Y-133436487D03*
X239244138Y-132486487D03*
%TD*%
%TO.C,D243*%
X231244457Y-121429189D03*
X231244457Y-120479189D03*
X232194457Y-120479189D03*
X232194457Y-121429189D03*
%TD*%
D13*
%TO.C,C302*%
X241669138Y-133568487D03*
X241669138Y-132018487D03*
%TD*%
D11*
%TO.C,D205*%
X236203391Y-140482490D03*
X236203391Y-141432490D03*
X235253391Y-141432490D03*
X235253391Y-140482490D03*
%TD*%
%TO.C,D207*%
X244203391Y-140482490D03*
X244203391Y-141432490D03*
X243253391Y-141432490D03*
X243253391Y-140482490D03*
%TD*%
D19*
%TO.C,C301*%
X217778391Y-136224490D03*
X217778391Y-137774490D03*
%TD*%
D11*
%TO.C,D223*%
X244194138Y-132486487D03*
X244194138Y-133436487D03*
X243244138Y-133436487D03*
X243244138Y-132486487D03*
%TD*%
D12*
%TO.C,R201*%
X165225000Y-117475000D03*
X166245000Y-117475000D03*
%TD*%
D11*
%TO.C,D235*%
X228193014Y-124492419D03*
X228193014Y-125442419D03*
X227243014Y-125442419D03*
X227243014Y-124492419D03*
%TD*%
%TO.C,D260*%
X227257000Y-113425000D03*
X227257000Y-112475000D03*
X228207000Y-112475000D03*
X228207000Y-113425000D03*
%TD*%
%TO.C,D209*%
X239253391Y-137432490D03*
X239253391Y-136482490D03*
X240203391Y-136482490D03*
X240203391Y-137432490D03*
%TD*%
D12*
%TO.C,R104*%
X181100000Y-140970000D03*
X182120000Y-140970000D03*
%TD*%
D11*
%TO.C,D256*%
X243257000Y-113425000D03*
X243257000Y-112475000D03*
X244207000Y-112475000D03*
X244207000Y-113425000D03*
%TD*%
D13*
%TO.C,C300*%
X241678391Y-141732490D03*
X241678391Y-140182490D03*
%TD*%
D11*
%TO.C,D247*%
X215244457Y-121429189D03*
X215244457Y-120479189D03*
X216194457Y-120479189D03*
X216194457Y-121429189D03*
%TD*%
D14*
%TO.C,C114*%
X233045000Y-153825000D03*
X233045000Y-154785000D03*
%TD*%
D11*
%TO.C,D236*%
X232193014Y-124492419D03*
X232193014Y-125442419D03*
X231243014Y-125442419D03*
X231243014Y-124492419D03*
%TD*%
D12*
%TO.C,R102*%
X179830000Y-126365000D03*
X180850000Y-126365000D03*
%TD*%
D11*
%TO.C,D242*%
X235244457Y-121429189D03*
X235244457Y-120479189D03*
X236194457Y-120479189D03*
X236194457Y-121429189D03*
%TD*%
%TO.C,D237*%
X236193014Y-124492419D03*
X236193014Y-125442419D03*
X235243014Y-125442419D03*
X235243014Y-124492419D03*
%TD*%
%TO.C,D216*%
X216194138Y-132486487D03*
X216194138Y-133436487D03*
X215244138Y-133436487D03*
X215244138Y-132486487D03*
%TD*%
%TO.C,D214*%
X219253391Y-137432490D03*
X219253391Y-136482490D03*
X220203391Y-136482490D03*
X220203391Y-137432490D03*
%TD*%
D35*
%TO.C,D101*%
X180822500Y-142240000D03*
X182397500Y-142240000D03*
%TD*%
D11*
%TO.C,D203*%
X228203391Y-140482490D03*
X228203391Y-141432490D03*
X227253391Y-141432490D03*
X227253391Y-140482490D03*
%TD*%
%TO.C,D259*%
X231257000Y-113425000D03*
X231257000Y-112475000D03*
X232207000Y-112475000D03*
X232207000Y-113425000D03*
%TD*%
D14*
%TO.C,C206*%
X209000000Y-124270000D03*
X209000000Y-125230000D03*
%TD*%
D36*
%TO.C,S101*%
X168935400Y-120110250D03*
D37*
X172694600Y-121285000D03*
D36*
X168935400Y-122459750D03*
%TD*%
D38*
%TO.C,R105*%
X178435000Y-139825000D03*
X178435000Y-140845000D03*
%TD*%
D11*
%TO.C,D234*%
X224193014Y-124492419D03*
X224193014Y-125442419D03*
X223243014Y-125442419D03*
X223243014Y-124492419D03*
%TD*%
%TO.C,D217*%
X220194138Y-132486487D03*
X220194138Y-133436487D03*
X219244138Y-133436487D03*
X219244138Y-132486487D03*
%TD*%
M02*
