M48
; DRILL file {KiCad (6.0.4)} date Tue Jan 10 10:28:10 2023
; FORMAT={-:-/ absolute / inch / decimal}
; #@! TF.CreationDate,2023-01-10T10:28:10+00:00
; #@! TF.GenerationSoftware,Kicad,Pcbnew,(6.0.4)
; #@! TF.FileFunction,NonPlated,1,2,NPTH
FMAT,2
INCH
; #@! TA.AperFunction,NonPlated,NPTH,ComponentDrill
T1C0.0197
; #@! TA.AperFunction,NonPlated,NPTH,ComponentDrill
T2C0.0256
; #@! TA.AperFunction,NonPlated,NPTH,ComponentDrill
T3C0.0551
%
G90
G05
T1
X6.5148Y-3.6811
X6.5148Y-3.7402
X6.5443Y-3.6811
X6.5443Y-3.7402
X6.5739Y-3.6811
X6.5739Y-3.7402
X6.6043Y-3.6811
X6.6043Y-3.7402
X6.6343Y-3.6811
X6.6343Y-3.7402
X7.9523Y-3.6811
X7.9523Y-3.7402
X7.9818Y-3.6811
X7.9818Y-3.7402
X8.0113Y-3.6811
X8.0113Y-3.7402
X8.0418Y-3.6811
X8.0418Y-3.7402
X8.0718Y-3.6811
X8.0718Y-3.7402
X9.3401Y-3.6811
X9.3401Y-3.7402
X9.3696Y-3.6811
X9.3696Y-3.7402
X9.3991Y-3.6811
X9.3991Y-3.7402
X9.4296Y-3.6811
X9.4296Y-3.7402
X9.4596Y-3.6811
X9.4596Y-3.7402
T2
X6.5092Y-4.7982
X6.5092Y-5.0258
T3
X9.3625Y-1.9498
X9.3625Y-2.8947
T0
M30
