M48
; DRILL file {KiCad (6.0.4)} date Tue Jan 10 10:28:10 2023
; FORMAT={-:-/ absolute / inch / decimal}
; #@! TF.CreationDate,2023-01-10T10:28:10+00:00
; #@! TF.GenerationSoftware,Kicad,Pcbnew,(6.0.4)
; #@! TF.FileFunction,Plated,1,2,PTH
FMAT,2
INCH
; #@! TA.AperFunction,Plated,PTH,ComponentDrill
T1C0.0315
; #@! TA.AperFunction,Plated,PTH,ComponentDrill
T2C0.0350
; #@! TA.AperFunction,Plated,PTH,ComponentDrill
T3C0.0354
; #@! TA.AperFunction,Plated,PTH,ComponentDrill
T4C0.0433
; #@! TA.AperFunction,Plated,PTH,ComponentDrill
T5C0.0453
; #@! TA.AperFunction,Plated,PTH,ComponentDrill
T6C0.0551
; #@! TA.AperFunction,Plated,PTH,ComponentDrill
T7C0.1181
%
G90
G05
T1
X6.7445Y-1.9713
X6.7445Y-4.55
X6.8232Y-1.9713
X6.8232Y-4.55
X6.9Y-2.2213
X6.9Y-2.3713
X6.9Y-2.5213
X6.9Y-2.6713
X6.9Y-2.8213
X6.9Y-4.8
X6.9Y-4.95
X6.9Y-5.1
X6.9Y-5.25
X6.9Y-5.4
X7.0281Y-2.0463
X7.0281Y-4.625
X7.225Y-2.0463
X7.225Y-4.625
X7.3Y-2.2213
X7.3Y-2.3713
X7.3Y-2.5213
X7.3Y-2.6713
X7.3Y-2.8213
X7.3Y-4.8
X7.3Y-4.95
X7.3Y-5.1
X7.3Y-5.25
X7.3Y-5.4
X7.425Y-1.6963
X7.425Y-1.9713
X7.425Y-4.275
X7.425Y-4.55
X7.4258Y-2.1963
X7.4258Y-4.775
X7.4266Y-2.8463
X7.4266Y-5.425
X7.475Y-2.4248
X7.475Y-2.6169
X7.475Y-5.0035
X7.475Y-5.1957
X7.5037Y-1.6963
X7.5037Y-1.9713
X7.5037Y-4.275
X7.5037Y-4.55
X7.5242Y-2.1963
X7.5242Y-4.775
X7.525Y-2.8463
X7.525Y-5.425
X7.6866Y-1.4685
X7.6866Y-1.5685
X7.6866Y-1.6685
X7.6866Y-1.7685
X7.6866Y-1.8685
X7.6866Y-1.9685
X7.6866Y-2.0685
X7.6866Y-2.1685
X7.6866Y-2.2685
X7.6866Y-2.3685
X7.6866Y-2.4685
X7.6866Y-2.5685
X7.6866Y-2.6685
X7.6866Y-2.7685
X7.6866Y-2.8685
X7.6866Y-2.9685
X7.6866Y-3.0685
X7.6866Y-3.1685
X7.6866Y-3.2685
X7.6866Y-3.3685
X7.6866Y-4.0472
X7.6866Y-4.1472
X7.6866Y-4.2472
X7.6866Y-4.3472
X7.6866Y-4.4472
X7.6866Y-4.5472
X7.6866Y-4.6472
X7.6866Y-4.7472
X7.6866Y-4.8472
X7.6866Y-4.9472
X7.6866Y-5.0472
X7.6866Y-5.1472
X7.6866Y-5.2472
X7.6866Y-5.3472
X7.6866Y-5.4472
X7.6866Y-5.5472
X7.6866Y-5.6472
X7.6866Y-5.7472
X7.6866Y-5.8472
X7.6866Y-5.9472
X8.2866Y-1.4685
X8.2866Y-1.5685
X8.2866Y-1.6685
X8.2866Y-1.7685
X8.2866Y-1.8685
X8.2866Y-1.9685
X8.2866Y-2.0685
X8.2866Y-2.1685
X8.2866Y-2.2685
X8.2866Y-2.3685
X8.2866Y-2.4685
X8.2866Y-2.5685
X8.2866Y-2.6685
X8.2866Y-2.7685
X8.2866Y-2.8685
X8.2866Y-2.9685
X8.2866Y-3.0685
X8.2866Y-3.1685
X8.2866Y-3.2685
X8.2866Y-3.3685
X8.2866Y-4.0472
X8.2866Y-4.1472
X8.2866Y-4.2472
X8.2866Y-4.3472
X8.2866Y-4.4472
X8.2866Y-4.5472
X8.2866Y-4.6472
X8.2866Y-4.7472
X8.2866Y-4.8472
X8.2866Y-4.9472
X8.2866Y-5.0472
X8.2866Y-5.1472
X8.2866Y-5.2472
X8.2866Y-5.3472
X8.2866Y-5.4472
X8.2866Y-5.5472
X8.2866Y-5.6472
X8.2866Y-5.7472
X8.2866Y-5.8472
X8.2866Y-5.9472
X8.475Y-1.7713
X8.475Y-3.0713
X8.475Y-4.35
X8.475Y-5.65
X8.825Y-1.6463
X8.825Y-3.1963
X8.825Y-4.225
X8.825Y-5.775
X8.875Y-1.7713
X8.875Y-3.0713
X8.875Y-4.35
X8.875Y-5.65
X9.175Y-1.7713
X9.175Y-3.0713
X9.175Y-4.35
X9.175Y-5.65
X9.225Y-1.6463
X9.225Y-3.1963
X9.225Y-4.225
X9.225Y-5.775
X9.575Y-1.7713
X9.575Y-3.0713
X9.575Y-4.35
X9.575Y-5.65
T2
X6.75Y-2.4228
X6.75Y-2.5213
X6.75Y-2.6197
X6.75Y-5.0016
X6.75Y-5.1
X6.75Y-5.1984
T3
X7.0998Y-3.0963
X7.0998Y-5.675
X7.1998Y-3.0963
X7.1998Y-5.675
T4
X6.672Y-2.9827
X6.672Y-3.1598
X6.672Y-5.5614
X6.672Y-5.7386
X6.928Y-2.9827
X6.928Y-3.1598
X6.928Y-5.5614
X6.928Y-5.7386
T5
X6.3695Y-2.7463
X6.3695Y-2.8463
X6.3695Y-2.9463
X6.3695Y-3.0463
X6.3695Y-3.1463
X6.3695Y-5.325
X6.3695Y-5.425
X6.3695Y-5.525
X6.3695Y-5.625
X6.3695Y-5.725
X6.3758Y-1.6957
X6.3758Y-1.7957
X6.3758Y-1.8957
X6.3758Y-4.2744
X6.3758Y-4.3744
X6.3758Y-4.4744
X6.4695Y-2.7463
X6.4695Y-2.8463
X6.4695Y-2.9463
X6.4695Y-3.0463
X6.4695Y-3.1463
X6.4695Y-5.325
X6.4695Y-5.425
X6.4695Y-5.525
X6.4695Y-5.625
X6.4695Y-5.725
X6.4758Y-1.6957
X6.4758Y-1.7957
X6.4758Y-1.8957
X6.4758Y-4.2744
X6.4758Y-4.3744
X6.4758Y-4.4744
X6.7463Y-1.6963
X6.7463Y-4.275
X6.825Y-1.6963
X6.825Y-4.275
X6.8738Y-1.3026
X6.8738Y-1.4026
X6.8738Y-3.8813
X6.8738Y-3.9813
X6.8762Y-3.44
X6.8762Y-3.54
X6.8762Y-6.0187
X6.8762Y-6.1187
X6.9738Y-1.3026
X6.9738Y-1.4026
X6.9738Y-3.8813
X6.9738Y-3.9813
X6.9762Y-3.44
X6.9762Y-3.54
X6.9762Y-6.0187
X6.9762Y-6.1187
X7.0738Y-1.3026
X7.0738Y-1.4026
X7.0738Y-3.8813
X7.0738Y-3.9813
X7.0762Y-3.44
X7.0762Y-3.54
X7.0762Y-6.0187
X7.0762Y-6.1187
X7.1738Y-1.3026
X7.1738Y-1.4026
X7.1738Y-3.8813
X7.1738Y-3.9813
X7.1762Y-3.44
X7.1762Y-3.54
X7.1762Y-6.0187
X7.1762Y-6.1187
X7.2738Y-1.3026
X7.2738Y-1.4026
X7.2738Y-3.8813
X7.2738Y-3.9813
X7.2762Y-3.44
X7.2762Y-3.54
X7.2762Y-6.0187
X7.2762Y-6.1187
X7.5Y-2.9957
X7.5Y-3.0957
X7.5Y-3.1957
X7.5Y-5.5744
X7.5Y-5.6744
X7.5Y-5.7744
X8.6762Y-3.4407
X8.6762Y-3.5407
X8.6762Y-6.0195
X8.6762Y-6.1195
X8.6764Y-1.3018
X8.6764Y-1.4018
X8.6764Y-3.8805
X8.6764Y-3.9805
X8.7762Y-3.4407
X8.7762Y-3.5407
X8.7762Y-6.0195
X8.7762Y-6.1195
X8.7764Y-1.3018
X8.7764Y-1.4018
X8.7764Y-3.8805
X8.7764Y-3.9805
X8.8762Y-3.4407
X8.8762Y-3.5407
X8.8762Y-6.0195
X8.8762Y-6.1195
X8.8764Y-1.3018
X8.8764Y-1.4018
X8.8764Y-3.8805
X8.8764Y-3.9805
X8.9762Y-3.4407
X8.9762Y-3.5407
X8.9762Y-6.0195
X8.9762Y-6.1195
X8.9764Y-1.3018
X8.9764Y-1.4018
X8.9764Y-3.8805
X8.9764Y-3.9805
X9.0762Y-3.4407
X9.0762Y-3.5407
X9.0762Y-6.0195
X9.0762Y-6.1195
X9.0764Y-1.3018
X9.0764Y-1.4018
X9.0764Y-3.8805
X9.0764Y-3.9805
T6
X9.3625Y-4.5285
X9.3625Y-5.4734
T7
X6.425Y-1.3463
X6.425Y-3.4963
X6.425Y-3.925
X6.425Y-6.075
X9.55Y-1.3463
X9.55Y-3.4963
X9.55Y-3.925
X9.55Y-6.075
T0
M30
