%TF.GenerationSoftware,KiCad,Pcbnew,(6.0.4)*%
%TF.CreationDate,2023-01-10T11:36:53+00:00*%
%TF.ProjectId,middle,6d696464-6c65-42e6-9b69-6361645f7063,rev?*%
%TF.SameCoordinates,Original*%
%TF.FileFunction,Soldermask,Top*%
%TF.FilePolarity,Negative*%
%FSLAX46Y46*%
G04 Gerber Fmt 4.6, Leading zero omitted, Abs format (unit mm)*
G04 Created by KiCad (PCBNEW (6.0.4)) date 2023-01-10 11:36:53*
%MOMM*%
%LPD*%
G01*
G04 APERTURE LIST*
G04 Aperture macros list*
%AMRoundRect*
0 Rectangle with rounded corners*
0 $1 Rounding radius*
0 $2 $3 $4 $5 $6 $7 $8 $9 X,Y pos of 4 corners*
0 Add a 4 corners polygon primitive as box body*
4,1,4,$2,$3,$4,$5,$6,$7,$8,$9,$2,$3,0*
0 Add four circle primitives for the rounded corners*
1,1,$1+$1,$2,$3*
1,1,$1+$1,$4,$5*
1,1,$1+$1,$6,$7*
1,1,$1+$1,$8,$9*
0 Add four rect primitives between the rounded corners*
20,1,$1+$1,$2,$3,$4,$5,0*
20,1,$1+$1,$4,$5,$6,$7,0*
20,1,$1+$1,$6,$7,$8,$9,0*
20,1,$1+$1,$8,$9,$2,$3,0*%
G04 Aperture macros list end*
%ADD10C,1.600000*%
%ADD11O,1.600000X1.600000*%
%ADD12R,1.600000X1.600000*%
%ADD13R,1.700000X1.700000*%
%ADD14O,1.700000X1.700000*%
%ADD15C,6.000000*%
%ADD16R,1.800000X1.800000*%
%ADD17C,1.800000*%
%ADD18C,1.397000*%
%ADD19C,2.000000*%
%ADD20RoundRect,0.312500X0.437500X0.562500X-0.437500X0.562500X-0.437500X-0.562500X0.437500X-0.562500X0*%
%ADD21O,1.500000X1.750000*%
%ADD22C,1.500000*%
G04 APERTURE END LIST*
D10*
%TO.C,R4*%
X114204907Y-95789907D03*
D11*
X104044907Y-95789907D03*
%TD*%
D12*
%TO.C,C6*%
X117379907Y-74199907D03*
D10*
X119379907Y-74199907D03*
%TD*%
D13*
%TO.C,JP103*%
X119284907Y-105299907D03*
D14*
X119284907Y-102759907D03*
X119284907Y-100219907D03*
%TD*%
D10*
%TO.C,R1*%
X104044907Y-84359907D03*
D11*
X114204907Y-84359907D03*
%TD*%
D13*
%TO.C,J105*%
X93109907Y-104044907D03*
D14*
X90569907Y-104044907D03*
X93109907Y-101504907D03*
X90569907Y-101504907D03*
X93109907Y-98964907D03*
X90569907Y-98964907D03*
X93109907Y-96424907D03*
X90569907Y-96424907D03*
X93109907Y-93884907D03*
X90569907Y-93884907D03*
%TD*%
D13*
%TO.C,SV4(D)1*%
X103439907Y-114044907D03*
D14*
X103439907Y-111504907D03*
X105979907Y-114044907D03*
X105979907Y-111504907D03*
X108519907Y-114044907D03*
X108519907Y-111504907D03*
X111059907Y-114044907D03*
X111059907Y-111504907D03*
X113599907Y-114044907D03*
X113599907Y-111504907D03*
%TD*%
D10*
%TO.C,R8*%
X161829907Y-102139907D03*
D11*
X171989907Y-102139907D03*
%TD*%
D10*
%TO.C,R7*%
X144049907Y-69119907D03*
D11*
X154209907Y-69119907D03*
%TD*%
D10*
%TO.C,C1*%
X119919907Y-96424907D03*
X117419907Y-96424907D03*
%TD*%
D13*
%TO.C,SV1(A)1*%
X159324907Y-57194907D03*
D14*
X159324907Y-59734907D03*
X156784907Y-57194907D03*
X156784907Y-59734907D03*
X154244907Y-57194907D03*
X154244907Y-59734907D03*
X151704907Y-57194907D03*
X151704907Y-59734907D03*
X149164907Y-57194907D03*
X149164907Y-59734907D03*
%TD*%
D10*
%TO.C,R2*%
X114204907Y-88169907D03*
D11*
X104044907Y-88169907D03*
%TD*%
D15*
%TO.C,*%
X91979907Y-58324907D03*
%TD*%
D16*
%TO.C,D1*%
X109119907Y-102774907D03*
D17*
X111659907Y-102774907D03*
%TD*%
D15*
%TO.C,REF\u002A\u002A*%
X171354907Y-58324907D03*
%TD*%
D12*
%TO.C,C4*%
X102095020Y-74199907D03*
D10*
X100095020Y-74199907D03*
%TD*%
D18*
%TO.C,S1*%
X100234907Y-90669907D03*
X100234907Y-88169907D03*
X100234907Y-85669907D03*
%TD*%
D10*
%TO.C,R6*%
X163099907Y-65944907D03*
D11*
X152939907Y-65944907D03*
%TD*%
D19*
%TO.C,S2*%
X98254907Y-104389907D03*
X104754907Y-104389907D03*
X104754907Y-99889907D03*
X98254907Y-99889907D03*
%TD*%
D20*
%TO.C,X103*%
X102139907Y-67214907D03*
D21*
X100139907Y-67214907D03*
%TD*%
D15*
%TO.C,*%
X91979907Y-112934907D03*
%TD*%
D10*
%TO.C,R11*%
X144049907Y-102139907D03*
D11*
X154209907Y-102139907D03*
%TD*%
D13*
%TO.C,J103*%
X93269907Y-72279907D03*
D14*
X90729907Y-72279907D03*
X93269907Y-69739907D03*
X90729907Y-69739907D03*
X93269907Y-67199907D03*
X90729907Y-67199907D03*
%TD*%
D10*
%TO.C,R3*%
X114204907Y-91979907D03*
D11*
X104044907Y-91979907D03*
%TD*%
D10*
%TO.C,R5*%
X104044907Y-80549907D03*
D11*
X114204907Y-80549907D03*
%TD*%
D12*
%TO.C,C5*%
X117379907Y-67214907D03*
D10*
X119379907Y-67214907D03*
%TD*%
D22*
%TO.C,Q1*%
X118649907Y-85719907D03*
X118649907Y-90599907D03*
%TD*%
D10*
%TO.C,C3*%
X112299907Y-76104907D03*
X107299907Y-76104907D03*
%TD*%
%TO.C,R10*%
X152939907Y-105314907D03*
D11*
X163099907Y-105314907D03*
%TD*%
D12*
%TO.C,*%
X124024907Y-61429907D03*
D11*
X124024907Y-63969907D03*
X124024907Y-66509907D03*
X124024907Y-69049907D03*
X124024907Y-71589907D03*
X124024907Y-74129907D03*
X124024907Y-76669907D03*
X124024907Y-79209907D03*
X124024907Y-81749907D03*
X124024907Y-84289907D03*
X124024907Y-86829907D03*
X124024907Y-89369907D03*
X124024907Y-91909907D03*
X124024907Y-94449907D03*
X124024907Y-96989907D03*
X124024907Y-99529907D03*
X124024907Y-102069907D03*
X124024907Y-104609907D03*
X124024907Y-107149907D03*
X124024907Y-109689907D03*
X139264907Y-109689907D03*
X139264907Y-107149907D03*
X139264907Y-104609907D03*
X139264907Y-102069907D03*
X139264907Y-99529907D03*
X139264907Y-96989907D03*
X139264907Y-94449907D03*
X139264907Y-91909907D03*
X139264907Y-89369907D03*
X139264907Y-86829907D03*
X139264907Y-84289907D03*
X139264907Y-81749907D03*
X139264907Y-79209907D03*
X139264907Y-76669907D03*
X139264907Y-74129907D03*
X139264907Y-71589907D03*
X139264907Y-69049907D03*
X139264907Y-66509907D03*
X139264907Y-63969907D03*
X139264907Y-61429907D03*
%TD*%
D13*
%TO.C,SV2(B)1*%
X113539907Y-57214907D03*
D14*
X113539907Y-59754907D03*
X110999907Y-57214907D03*
X110999907Y-59754907D03*
X108459907Y-57214907D03*
X108459907Y-59754907D03*
X105919907Y-57214907D03*
X105919907Y-59754907D03*
X103379907Y-57214907D03*
X103379907Y-59754907D03*
%TD*%
D10*
%TO.C,R9*%
X171989907Y-69119907D03*
D11*
X161829907Y-69119907D03*
%TD*%
D15*
%TO.C,*%
X171354907Y-112934907D03*
%TD*%
D10*
%TO.C,C2*%
X119899907Y-79914907D03*
X117399907Y-79914907D03*
%TD*%
D13*
%TO.C,SV3(C)1*%
X149159907Y-114064907D03*
D14*
X149159907Y-111524907D03*
X151699907Y-114064907D03*
X151699907Y-111524907D03*
X154239907Y-114064907D03*
X154239907Y-111524907D03*
X156779907Y-114064907D03*
X156779907Y-111524907D03*
X159319907Y-114064907D03*
X159319907Y-111524907D03*
%TD*%
M02*
