%TF.GenerationSoftware,KiCad,Pcbnew,(6.0.4)*%
%TF.CreationDate,2023-01-10T11:36:53+00:00*%
%TF.ProjectId,middle,6d696464-6c65-42e6-9b69-6361645f7063,rev?*%
%TF.SameCoordinates,Original*%
%TF.FileFunction,Profile,NP*%
%FSLAX46Y46*%
G04 Gerber Fmt 4.6, Leading zero omitted, Abs format (unit mm)*
G04 Created by KiCad (PCBNEW (6.0.4)) date 2023-01-10 11:36:53*
%MOMM*%
%LPD*%
G01*
G04 APERTURE LIST*
%TA.AperFunction,Profile*%
%ADD10C,0.100000*%
%TD*%
%TA.AperFunction,Profile*%
%ADD11C,0.050000*%
%TD*%
G04 APERTURE END LIST*
D10*
X98534907Y-75379907D02*
X102520907Y-75379907D01*
X87534893Y-112934907D02*
G75*
G03*
X91979907Y-117379907I4445007J7D01*
G01*
X102534907Y-83129907D02*
X97034907Y-83129907D01*
X102520907Y-75379907D02*
X102534907Y-83129907D01*
X117034907Y-68379907D02*
X120284907Y-68379907D01*
X120284907Y-68379907D02*
X120284907Y-73129907D01*
X120284907Y-73129907D02*
X117034907Y-73129907D01*
X117034907Y-73129907D02*
X117034907Y-68379907D01*
X156534907Y-70129907D02*
X156534907Y-65129907D01*
X147784907Y-70129907D02*
X147784907Y-68129907D01*
X165534907Y-103129907D02*
X165534907Y-101129907D01*
X102534907Y-68879907D02*
X102534907Y-71879907D01*
X150784907Y-101129907D02*
X156534907Y-101129907D01*
X147784907Y-103129907D02*
X150784907Y-103129907D01*
X89500000Y-75379907D02*
X96534907Y-75379907D01*
X159784907Y-101129907D02*
X159784907Y-106129907D01*
X175799907Y-58324907D02*
X175799907Y-112934907D01*
X165534907Y-101129907D02*
X159784907Y-101129907D01*
X127034907Y-79879907D02*
X138284907Y-79879907D01*
X138284907Y-79879907D02*
X138284907Y-89379907D01*
X138284907Y-89379907D02*
X127034907Y-89379907D01*
X127034907Y-89379907D02*
X127034907Y-79879907D01*
X150534907Y-68129907D02*
X150534907Y-70129907D01*
X115284907Y-111629907D02*
X118284907Y-111629907D01*
X118284907Y-111629907D02*
X118284907Y-114129907D01*
X118284907Y-114129907D02*
X115284907Y-114129907D01*
X115284907Y-114129907D02*
X115284907Y-111629907D01*
X165534907Y-70129907D02*
X165534907Y-68129907D01*
X156534907Y-65129907D02*
X159784907Y-65129907D01*
X159784907Y-106129907D02*
X156534907Y-106129907D01*
X168534907Y-70129907D02*
X173784907Y-70129907D01*
X98784907Y-57129907D02*
X101784907Y-57129907D01*
X101784907Y-57129907D02*
X101784907Y-59629907D01*
X101784907Y-59629907D02*
X98784907Y-59629907D01*
X98784907Y-59629907D02*
X98784907Y-57129907D01*
X97034907Y-91629907D02*
X89500000Y-91629907D01*
X102534907Y-71879907D02*
X98534907Y-71879907D01*
X119534907Y-82379907D02*
X122784907Y-82379907D01*
X122784907Y-82379907D02*
X122784907Y-91629907D01*
X122784907Y-91629907D02*
X119534907Y-91629907D01*
X119534907Y-91629907D02*
X119534907Y-82379907D01*
X173784907Y-70129907D02*
X173784907Y-101129907D01*
X96534907Y-68879907D02*
X102534907Y-68879907D01*
D11*
X89500000Y-75379907D02*
X89500000Y-78517907D01*
D10*
X91979907Y-53879907D02*
G75*
G03*
X87534907Y-58324907I-7J-4444993D01*
G01*
X106284907Y-97629907D02*
X112284907Y-97629907D01*
X112284907Y-97629907D02*
X112284907Y-101629907D01*
X112284907Y-101629907D02*
X106284907Y-101629907D01*
X106284907Y-101629907D02*
X106284907Y-97629907D01*
X143034907Y-70129907D02*
X147784907Y-70129907D01*
X156534907Y-106129907D02*
X156534907Y-101129907D01*
X147784907Y-103129907D02*
X147784907Y-101129907D01*
X97034907Y-83129907D02*
X97034907Y-91629907D01*
X96534907Y-75379907D02*
X96534907Y-68879907D01*
X105034907Y-70879907D02*
X109784907Y-70879907D01*
X109784907Y-70879907D02*
X109784907Y-74629907D01*
X109784907Y-74629907D02*
X105034907Y-74629907D01*
X105034907Y-74629907D02*
X105034907Y-70879907D01*
X147784907Y-101129907D02*
X143034907Y-101129907D01*
X168534907Y-68129907D02*
X168534907Y-70129907D01*
X89500000Y-88169907D02*
X87534907Y-88169907D01*
X161034907Y-111629907D02*
X164034907Y-111629907D01*
X164034907Y-111629907D02*
X164034907Y-114129907D01*
X164034907Y-114129907D02*
X161034907Y-114129907D01*
X161034907Y-114129907D02*
X161034907Y-111629907D01*
X144434907Y-57129907D02*
X147434907Y-57129907D01*
X147434907Y-57129907D02*
X147434907Y-59629907D01*
X147434907Y-59629907D02*
X144434907Y-59629907D01*
X144434907Y-59629907D02*
X144434907Y-57129907D01*
X143034907Y-101129907D02*
X143034907Y-70129907D01*
X165534907Y-70129907D02*
X159784907Y-70129907D01*
X87534907Y-78517907D02*
X87534907Y-58324907D01*
X150534907Y-70129907D02*
X156534907Y-70129907D01*
X99726907Y-99091907D02*
X103282907Y-99091907D01*
X103282907Y-99091907D02*
X103282907Y-105441907D01*
X103282907Y-105441907D02*
X99726907Y-105441907D01*
X99726907Y-105441907D02*
X99726907Y-99091907D01*
X147784907Y-68129907D02*
X150534907Y-68129907D01*
D11*
X89500000Y-88169907D02*
X89500000Y-91629907D01*
D10*
X87534907Y-78517907D02*
X89500000Y-78517907D01*
X87534907Y-88169907D02*
X87534907Y-112934907D01*
X168534907Y-101129907D02*
X168534907Y-103129907D01*
X173784907Y-101129907D02*
X168534907Y-101129907D01*
X150784907Y-101129907D02*
X150784907Y-103129907D01*
X171354907Y-53879907D02*
X91979907Y-53879907D01*
X105534907Y-83129907D02*
X112284907Y-83129907D01*
X112284907Y-83129907D02*
X112284907Y-94629907D01*
X112284907Y-94629907D02*
X105534907Y-94629907D01*
X105534907Y-94629907D02*
X105534907Y-83129907D01*
X171354907Y-117379907D02*
G75*
G03*
X175799907Y-112934907I-7J4445007D01*
G01*
X168534907Y-68129907D02*
X165534907Y-68129907D01*
X98534907Y-71879907D02*
X98534907Y-75379907D01*
X171354907Y-117379907D02*
X91979907Y-117379907D01*
X168534907Y-103129907D02*
X165534907Y-103129907D01*
X175799893Y-58324907D02*
G75*
G03*
X171354907Y-53879907I-4444993J7D01*
G01*
X159784907Y-65129907D02*
X159784907Y-70129907D01*
M02*
