M48
; DRILL file {KiCad (6.0.4)} date Tue Jan 10 11:36:57 2023
; FORMAT={-:-/ absolute / inch / decimal}
; #@! TF.CreationDate,2023-01-10T11:36:57+00:00
; #@! TF.GenerationSoftware,Kicad,Pcbnew,(6.0.4)
; #@! TF.FileFunction,Plated,1,2,PTH
FMAT,2
INCH
; #@! TA.AperFunction,Plated,PTH,ComponentDrill
T1C0.0315
; #@! TA.AperFunction,Plated,PTH,ComponentDrill
T2C0.0350
; #@! TA.AperFunction,Plated,PTH,ComponentDrill
T3C0.0354
; #@! TA.AperFunction,Plated,PTH,ComponentDrill
T4C0.0433
; #@! TA.AperFunction,Plated,PTH,ComponentDrill
T5C0.0453
; #@! TA.AperFunction,Plated,PTH,ComponentDrill
T6C0.1181
%
G90
G05
T1
X3.9407Y-2.9213
X4.0195Y-2.9213
X4.0963Y-3.1713
X4.0963Y-3.3213
X4.0963Y-3.4713
X4.0963Y-3.6213
X4.0963Y-3.7713
X4.2244Y-2.9963
X4.4213Y-2.9963
X4.4963Y-3.1713
X4.4963Y-3.3213
X4.4963Y-3.4713
X4.4963Y-3.6213
X4.4963Y-3.7713
X4.6213Y-2.6463
X4.6213Y-2.9213
X4.622Y-3.1463
X4.6228Y-3.7963
X4.6713Y-3.3748
X4.6713Y-3.5669
X4.7Y-2.6463
X4.7Y-2.9213
X4.7205Y-3.1463
X4.7213Y-3.7963
X4.8829Y-2.4185
X4.8829Y-2.5185
X4.8829Y-2.6185
X4.8829Y-2.7185
X4.8829Y-2.8185
X4.8829Y-2.9185
X4.8829Y-3.0185
X4.8829Y-3.1185
X4.8829Y-3.2185
X4.8829Y-3.3185
X4.8829Y-3.4185
X4.8829Y-3.5185
X4.8829Y-3.6185
X4.8829Y-3.7185
X4.8829Y-3.8185
X4.8829Y-3.9185
X4.8829Y-4.0185
X4.8829Y-4.1185
X4.8829Y-4.2185
X4.8829Y-4.3185
X5.4829Y-2.4185
X5.4829Y-2.5185
X5.4829Y-2.6185
X5.4829Y-2.7185
X5.4829Y-2.8185
X5.4829Y-2.9185
X5.4829Y-3.0185
X5.4829Y-3.1185
X5.4829Y-3.2185
X5.4829Y-3.3185
X5.4829Y-3.4185
X5.4829Y-3.5185
X5.4829Y-3.6185
X5.4829Y-3.7185
X5.4829Y-3.8185
X5.4829Y-3.9185
X5.4829Y-4.0185
X5.4829Y-4.1185
X5.4829Y-4.2185
X5.4829Y-4.3185
X5.6713Y-2.7213
X5.6713Y-4.0213
X6.0213Y-2.5963
X6.0213Y-4.1463
X6.0713Y-2.7213
X6.0713Y-4.0213
X6.3713Y-2.7213
X6.3713Y-4.0213
X6.4213Y-2.5963
X6.4213Y-4.1463
X6.7713Y-2.7213
X6.7713Y-4.0213
T2
X3.9463Y-3.3728
X3.9463Y-3.4713
X3.9463Y-3.5697
T3
X4.2961Y-4.0463
X4.3961Y-4.0463
T4
X3.8683Y-3.9327
X3.8683Y-4.1098
X4.1242Y-3.9327
X4.1242Y-4.1098
T5
X3.5657Y-3.6963
X3.5657Y-3.7963
X3.5657Y-3.8963
X3.5657Y-3.9963
X3.5657Y-4.0963
X3.572Y-2.6457
X3.572Y-2.7457
X3.572Y-2.8457
X3.6657Y-3.6963
X3.6657Y-3.7963
X3.6657Y-3.8963
X3.6657Y-3.9963
X3.6657Y-4.0963
X3.672Y-2.6457
X3.672Y-2.7457
X3.672Y-2.8457
X3.9425Y-2.6463
X4.0213Y-2.6463
X4.0701Y-2.2526
X4.0701Y-2.3526
X4.0724Y-4.39
X4.0724Y-4.49
X4.1701Y-2.2526
X4.1701Y-2.3526
X4.1724Y-4.39
X4.1724Y-4.49
X4.2701Y-2.2526
X4.2701Y-2.3526
X4.2724Y-4.39
X4.2724Y-4.49
X4.3701Y-2.2526
X4.3701Y-2.3526
X4.3724Y-4.39
X4.3724Y-4.49
X4.4701Y-2.2526
X4.4701Y-2.3526
X4.4724Y-4.39
X4.4724Y-4.49
X4.6963Y-3.9457
X4.6963Y-4.0457
X4.6963Y-4.1457
X5.8724Y-4.3907
X5.8724Y-4.4907
X5.8726Y-2.2518
X5.8726Y-2.3518
X5.9724Y-4.3907
X5.9724Y-4.4907
X5.9726Y-2.2518
X5.9726Y-2.3518
X6.0724Y-4.3907
X6.0724Y-4.4907
X6.0726Y-2.2518
X6.0726Y-2.3518
X6.1724Y-4.3907
X6.1724Y-4.4907
X6.1726Y-2.2518
X6.1726Y-2.3518
X6.2724Y-4.3907
X6.2724Y-4.4907
X6.2726Y-2.2518
X6.2726Y-2.3518
T6
X3.6213Y-2.2963
X3.6213Y-4.4463
X6.7463Y-2.2963
X6.7463Y-4.4463
T0
M30
