%TF.GenerationSoftware,KiCad,Pcbnew,(6.0.9)*%
%TF.CreationDate,2023-01-08T00:55:18+00:00*%
%TF.ProjectId,il-flatto,696c2d66-6c61-4747-946f-2e6b69636164,rev?*%
%TF.SameCoordinates,Original*%
%TF.FileFunction,Soldermask,Bot*%
%TF.FilePolarity,Negative*%
%FSLAX46Y46*%
G04 Gerber Fmt 4.6, Leading zero omitted, Abs format (unit mm)*
G04 Created by KiCad (PCBNEW (6.0.9)) date 2023-01-08 00:55:18*
%MOMM*%
%LPD*%
G01*
G04 APERTURE LIST*
G04 Aperture macros list*
%AMRoundRect*
0 Rectangle with rounded corners*
0 $1 Rounding radius*
0 $2 $3 $4 $5 $6 $7 $8 $9 X,Y pos of 4 corners*
0 Add a 4 corners polygon primitive as box body*
4,1,4,$2,$3,$4,$5,$6,$7,$8,$9,$2,$3,0*
0 Add four circle primitives for the rounded corners*
1,1,$1+$1,$2,$3*
1,1,$1+$1,$4,$5*
1,1,$1+$1,$6,$7*
1,1,$1+$1,$8,$9*
0 Add four rect primitives between the rounded corners*
20,1,$1+$1,$2,$3,$4,$5,0*
20,1,$1+$1,$4,$5,$6,$7,0*
20,1,$1+$1,$6,$7,$8,$9,0*
20,1,$1+$1,$8,$9,$2,$3,0*%
G04 Aperture macros list end*
%ADD10C,0.500000*%
%ADD11C,1.600000*%
%ADD12O,1.600000X1.600000*%
%ADD13C,6.000000*%
%ADD14R,1.600000X1.600000*%
%ADD15O,1.700000X1.700000*%
%ADD16R,1.700000X1.700000*%
%ADD17C,1.500000*%
%ADD18C,0.650000*%
%ADD19C,1.397000*%
%ADD20C,2.000000*%
%ADD21C,1.800000*%
%ADD22R,1.800000X1.800000*%
%ADD23O,1.500000X1.750000*%
%ADD24RoundRect,0.312500X0.437500X0.562500X-0.437500X0.562500X-0.437500X-0.562500X0.437500X-0.562500X0*%
%ADD25RoundRect,0.237500X-0.237500X0.300000X-0.237500X-0.300000X0.237500X-0.300000X0.237500X0.300000X0*%
%ADD26R,0.762000X1.117600*%
%ADD27RoundRect,0.250001X-0.462499X-0.624999X0.462499X-0.624999X0.462499X0.624999X-0.462499X0.624999X0*%
%ADD28RoundRect,0.237500X0.237500X-0.300000X0.237500X0.300000X-0.237500X0.300000X-0.237500X-0.300000X0*%
%ADD29RoundRect,0.250000X0.650000X-0.412500X0.650000X0.412500X-0.650000X0.412500X-0.650000X-0.412500X0*%
%ADD30RoundRect,0.250000X-0.650000X0.412500X-0.650000X-0.412500X0.650000X-0.412500X0.650000X0.412500X0*%
%ADD31RoundRect,0.250000X0.350000X0.450000X-0.350000X0.450000X-0.350000X-0.450000X0.350000X-0.450000X0*%
%ADD32RoundRect,0.150000X0.150000X-0.825000X0.150000X0.825000X-0.150000X0.825000X-0.150000X-0.825000X0*%
G04 APERTURE END LIST*
D10*
%TO.C,mouse-bite-3mm-slot*%
X204262000Y-95000000D03*
X202738000Y-95000000D03*
X204262000Y-93500000D03*
X205024000Y-93500000D03*
X202738000Y-93500000D03*
X203488000Y-93500000D03*
X203488000Y-95000000D03*
X205024000Y-95000000D03*
X201988000Y-93500000D03*
X201988000Y-95000000D03*
%TD*%
%TO.C,mouse-bite-3mm-slot*%
X239512000Y-95000000D03*
X237988000Y-95000000D03*
X239512000Y-93500000D03*
X240274000Y-93500000D03*
X237988000Y-93500000D03*
X238738000Y-93500000D03*
X238738000Y-95000000D03*
X240274000Y-95000000D03*
X237238000Y-93500000D03*
X237238000Y-95000000D03*
%TD*%
%TO.C,mouse-bite-3mm-slot*%
X168512000Y-93500000D03*
X166226000Y-95000000D03*
X167750000Y-95000000D03*
X165476000Y-93500000D03*
X165476000Y-95000000D03*
X166226000Y-93500000D03*
X166976000Y-93500000D03*
X166976000Y-95000000D03*
X168512000Y-95000000D03*
X167750000Y-93500000D03*
%TD*%
D11*
%TO.C,R1*%
X175260000Y-125730000D03*
D12*
X185420000Y-125730000D03*
%TD*%
D13*
%TO.C,REF\u002A\u002A*%
X242570000Y-99695000D03*
%TD*%
D11*
%TO.C,C6*%
X190595000Y-50070000D03*
D14*
X188595000Y-50070000D03*
%TD*%
D15*
%TO.C,SV1(A)1*%
X220380000Y-35605000D03*
X220380000Y-33065000D03*
X222920000Y-35605000D03*
X222920000Y-33065000D03*
X225460000Y-35605000D03*
X225460000Y-33065000D03*
X228000000Y-35605000D03*
X228000000Y-33065000D03*
X230540000Y-35605000D03*
D16*
X230540000Y-33065000D03*
%TD*%
D11*
%TO.C,R10*%
X224155000Y-146685000D03*
D12*
X234315000Y-146685000D03*
%TD*%
D14*
%TO.C,C4*%
X173310113Y-115570000D03*
D11*
X171310113Y-115570000D03*
%TD*%
D17*
%TO.C,Q1*%
X189865000Y-127090000D03*
X189865000Y-131970000D03*
%TD*%
D15*
%TO.C,SV3(C)1*%
X230535000Y-87395000D03*
X230535000Y-89935000D03*
X227995000Y-87395000D03*
X227995000Y-89935000D03*
X225455000Y-87395000D03*
X225455000Y-89935000D03*
X222915000Y-87395000D03*
X222915000Y-89935000D03*
X220375000Y-87395000D03*
D16*
X220375000Y-89935000D03*
%TD*%
D18*
%TO.C,X101*%
X165333700Y-127654800D03*
X165333700Y-121874800D03*
%TD*%
D11*
%TO.C,R4*%
X185420000Y-137160000D03*
D12*
X175260000Y-137160000D03*
%TD*%
D16*
%TO.C,J103*%
X164485000Y-113650000D03*
D15*
X161945000Y-113650000D03*
X164485000Y-111110000D03*
X161945000Y-111110000D03*
X164485000Y-108570000D03*
X161945000Y-108570000D03*
%TD*%
D14*
%TO.C,C5*%
X188595000Y-108585000D03*
D11*
X190595000Y-108585000D03*
%TD*%
%TO.C,R2*%
X185420000Y-129540000D03*
D12*
X175260000Y-129540000D03*
%TD*%
%TO.C,R4*%
X175260000Y-71660000D03*
D11*
X185420000Y-71660000D03*
%TD*%
D15*
%TO.C,JP3*%
X190500000Y-76090000D03*
X190500000Y-78630000D03*
D16*
X190500000Y-81170000D03*
%TD*%
D11*
%TO.C,R3*%
X185420000Y-133350000D03*
D12*
X175260000Y-133350000D03*
%TD*%
D14*
%TO.C,C6*%
X188595000Y-115570000D03*
D11*
X190595000Y-115570000D03*
%TD*%
D17*
%TO.C,Q1*%
X189865000Y-66470000D03*
X189865000Y-61590000D03*
%TD*%
D13*
%TO.C,*%
X242570000Y-88805000D03*
%TD*%
D11*
%TO.C,C3*%
X178515000Y-51975000D03*
X183515000Y-51975000D03*
%TD*%
D19*
%TO.C,S1*%
X171450000Y-61540000D03*
X171450000Y-64040000D03*
X171450000Y-66540000D03*
%TD*%
D13*
%TO.C,REF\u002A\u002A*%
X242570000Y-34195000D03*
%TD*%
D12*
%TO.C,R9*%
X233045000Y-44990000D03*
D11*
X243205000Y-44990000D03*
%TD*%
D13*
%TO.C,*%
X242570000Y-154305000D03*
%TD*%
D12*
%TO.C,R8*%
X243205000Y-78010000D03*
D11*
X233045000Y-78010000D03*
%TD*%
%TO.C,C4*%
X171310113Y-50070000D03*
D14*
X173310113Y-50070000D03*
%TD*%
D20*
%TO.C,X102*%
X237807172Y-139025000D03*
X237807172Y-115025000D03*
%TD*%
D15*
%TO.C,J5*%
X161785000Y-69755000D03*
X164325000Y-69755000D03*
X161785000Y-72295000D03*
X164325000Y-72295000D03*
X161785000Y-74835000D03*
X164325000Y-74835000D03*
X161785000Y-77375000D03*
X164325000Y-77375000D03*
X161785000Y-79915000D03*
D16*
X164325000Y-79915000D03*
%TD*%
%TO.C,SV1(A)1*%
X230540000Y-98565000D03*
D15*
X230540000Y-101105000D03*
X228000000Y-98565000D03*
X228000000Y-101105000D03*
X225460000Y-98565000D03*
X225460000Y-101105000D03*
X222920000Y-98565000D03*
X222920000Y-101105000D03*
X220380000Y-98565000D03*
X220380000Y-101105000D03*
%TD*%
D11*
%TO.C,R9*%
X243205000Y-110490000D03*
D12*
X233045000Y-110490000D03*
%TD*%
%TO.C,R2*%
X175260000Y-64040000D03*
D11*
X185420000Y-64040000D03*
%TD*%
D12*
%TO.C,R3*%
X175260000Y-67850000D03*
D11*
X185420000Y-67850000D03*
%TD*%
D13*
%TO.C,*%
X163195000Y-34195000D03*
%TD*%
D12*
%TO.C,IC1*%
X210480000Y-37300000D03*
X210480000Y-39840000D03*
X210480000Y-42380000D03*
X210480000Y-44920000D03*
X210480000Y-47460000D03*
X210480000Y-50000000D03*
X210480000Y-52540000D03*
X210480000Y-55080000D03*
X210480000Y-57620000D03*
X210480000Y-60160000D03*
X210480000Y-62700000D03*
X210480000Y-65240000D03*
X210480000Y-67780000D03*
X210480000Y-70320000D03*
X210480000Y-72860000D03*
X210480000Y-75400000D03*
X210480000Y-77940000D03*
X210480000Y-80480000D03*
X210480000Y-83020000D03*
X210480000Y-85560000D03*
X195240000Y-85560000D03*
X195240000Y-83020000D03*
X195240000Y-80480000D03*
X195240000Y-77940000D03*
X195240000Y-75400000D03*
X195240000Y-72860000D03*
X195240000Y-70320000D03*
X195240000Y-67780000D03*
X195240000Y-65240000D03*
X195240000Y-62700000D03*
X195240000Y-60160000D03*
X195240000Y-57620000D03*
X195240000Y-55080000D03*
X195240000Y-52540000D03*
X195240000Y-50000000D03*
X195240000Y-47460000D03*
X195240000Y-44920000D03*
X195240000Y-42380000D03*
X195240000Y-39840000D03*
D14*
X195240000Y-37300000D03*
%TD*%
D20*
%TO.C,X2*%
X237807172Y-49525000D03*
X237807172Y-73525000D03*
%TD*%
D12*
%TO.C,R5*%
X185420000Y-56420000D03*
D11*
X175260000Y-56420000D03*
%TD*%
D21*
%TO.C,D1*%
X182875000Y-78645000D03*
D22*
X180335000Y-78645000D03*
%TD*%
D12*
%TO.C,R1*%
X185420000Y-60230000D03*
D11*
X175260000Y-60230000D03*
%TD*%
%TO.C,R5*%
X175260000Y-121920000D03*
D12*
X185420000Y-121920000D03*
%TD*%
D11*
%TO.C,C3*%
X183515000Y-117475000D03*
X178515000Y-117475000D03*
%TD*%
D12*
%TO.C,R10*%
X234315000Y-81185000D03*
D11*
X224155000Y-81185000D03*
%TD*%
D23*
%TO.C,X3*%
X171355000Y-43085000D03*
D24*
X173355000Y-43085000D03*
%TD*%
D16*
%TO.C,JP103*%
X190500000Y-146670000D03*
D15*
X190500000Y-144130000D03*
X190500000Y-141590000D03*
%TD*%
D11*
%TO.C,R7*%
X215265000Y-110490000D03*
D12*
X225425000Y-110490000D03*
%TD*%
D11*
%TO.C,C1*%
X191135000Y-137795000D03*
X188635000Y-137795000D03*
%TD*%
D13*
%TO.C,*%
X163195000Y-99695000D03*
%TD*%
D15*
%TO.C,SV4(D)1*%
X184815000Y-87375000D03*
X184815000Y-89915000D03*
X182275000Y-87375000D03*
X182275000Y-89915000D03*
X179735000Y-87375000D03*
X179735000Y-89915000D03*
X177195000Y-87375000D03*
X177195000Y-89915000D03*
X174655000Y-87375000D03*
D16*
X174655000Y-89915000D03*
%TD*%
D11*
%TO.C,R8*%
X233045000Y-143510000D03*
D12*
X243205000Y-143510000D03*
%TD*%
D20*
%TO.C,S2*%
X175970000Y-75760000D03*
X169470000Y-75760000D03*
X169470000Y-80260000D03*
X175970000Y-80260000D03*
%TD*%
D15*
%TO.C,J3*%
X161945000Y-43070000D03*
X164485000Y-43070000D03*
X161945000Y-45610000D03*
X164485000Y-45610000D03*
X161945000Y-48150000D03*
D16*
X164485000Y-48150000D03*
%TD*%
D22*
%TO.C,D1*%
X180335000Y-144145000D03*
D21*
X182875000Y-144145000D03*
%TD*%
D13*
%TO.C,*%
X163195000Y-154305000D03*
%TD*%
D12*
%TO.C,R11*%
X225425000Y-78010000D03*
D11*
X215265000Y-78010000D03*
%TD*%
D16*
%TO.C,J105*%
X164325000Y-145415000D03*
D15*
X161785000Y-145415000D03*
X164325000Y-142875000D03*
X161785000Y-142875000D03*
X164325000Y-140335000D03*
X161785000Y-140335000D03*
X164325000Y-137795000D03*
X161785000Y-137795000D03*
X164325000Y-135255000D03*
X161785000Y-135255000D03*
%TD*%
D12*
%TO.C,R6*%
X224155000Y-41815000D03*
D11*
X234315000Y-41815000D03*
%TD*%
D24*
%TO.C,X103*%
X173355000Y-108585000D03*
D23*
X171355000Y-108585000D03*
%TD*%
D16*
%TO.C,SV3(C)1*%
X220375000Y-155435000D03*
D15*
X220375000Y-152895000D03*
X222915000Y-155435000D03*
X222915000Y-152895000D03*
X225455000Y-155435000D03*
X225455000Y-152895000D03*
X227995000Y-155435000D03*
X227995000Y-152895000D03*
X230535000Y-155435000D03*
X230535000Y-152895000D03*
%TD*%
D13*
%TO.C,*%
X163195000Y-88805000D03*
%TD*%
D11*
%TO.C,C2*%
X191115000Y-121285000D03*
X188615000Y-121285000D03*
%TD*%
D16*
%TO.C,SV2(B)1*%
X184755000Y-98585000D03*
D15*
X184755000Y-101125000D03*
X182215000Y-98585000D03*
X182215000Y-101125000D03*
X179675000Y-98585000D03*
X179675000Y-101125000D03*
X177135000Y-98585000D03*
X177135000Y-101125000D03*
X174595000Y-98585000D03*
X174595000Y-101125000D03*
%TD*%
D11*
%TO.C,C5*%
X190595000Y-43085000D03*
D14*
X188595000Y-43085000D03*
%TD*%
D11*
%TO.C,C2*%
X188615000Y-55785000D03*
X191115000Y-55785000D03*
%TD*%
D20*
%TO.C,S2*%
X169470000Y-145760000D03*
X175970000Y-145760000D03*
X175970000Y-141260000D03*
X169470000Y-141260000D03*
%TD*%
D11*
%TO.C,R11*%
X215265000Y-143510000D03*
D12*
X225425000Y-143510000D03*
%TD*%
D16*
%TO.C,SV4(D)1*%
X174655000Y-155415000D03*
D15*
X174655000Y-152875000D03*
X177195000Y-155415000D03*
X177195000Y-152875000D03*
X179735000Y-155415000D03*
X179735000Y-152875000D03*
X182275000Y-155415000D03*
X182275000Y-152875000D03*
X184815000Y-155415000D03*
X184815000Y-152875000D03*
%TD*%
D12*
%TO.C,R7*%
X225425000Y-44990000D03*
D11*
X215265000Y-44990000D03*
%TD*%
D15*
%TO.C,SV2(B)1*%
X174595000Y-35625000D03*
X174595000Y-33085000D03*
X177135000Y-35625000D03*
X177135000Y-33085000D03*
X179675000Y-35625000D03*
X179675000Y-33085000D03*
X182215000Y-35625000D03*
X182215000Y-33085000D03*
X184755000Y-35625000D03*
D16*
X184755000Y-33085000D03*
%TD*%
D14*
%TO.C,*%
X195240000Y-102800000D03*
D12*
X195240000Y-105340000D03*
X195240000Y-107880000D03*
X195240000Y-110420000D03*
X195240000Y-112960000D03*
X195240000Y-115500000D03*
X195240000Y-118040000D03*
X195240000Y-120580000D03*
X195240000Y-123120000D03*
X195240000Y-125660000D03*
X195240000Y-128200000D03*
X195240000Y-130740000D03*
X195240000Y-133280000D03*
X195240000Y-135820000D03*
X195240000Y-138360000D03*
X195240000Y-140900000D03*
X195240000Y-143440000D03*
X195240000Y-145980000D03*
X195240000Y-148520000D03*
X195240000Y-151060000D03*
X210480000Y-151060000D03*
X210480000Y-148520000D03*
X210480000Y-145980000D03*
X210480000Y-143440000D03*
X210480000Y-140900000D03*
X210480000Y-138360000D03*
X210480000Y-135820000D03*
X210480000Y-133280000D03*
X210480000Y-130740000D03*
X210480000Y-128200000D03*
X210480000Y-125660000D03*
X210480000Y-123120000D03*
X210480000Y-120580000D03*
X210480000Y-118040000D03*
X210480000Y-115500000D03*
X210480000Y-112960000D03*
X210480000Y-110420000D03*
X210480000Y-107880000D03*
X210480000Y-105340000D03*
X210480000Y-102800000D03*
%TD*%
D11*
%TO.C,R6*%
X234315000Y-107315000D03*
D12*
X224155000Y-107315000D03*
%TD*%
D19*
%TO.C,S1*%
X171450000Y-132040000D03*
X171450000Y-129540000D03*
X171450000Y-127040000D03*
%TD*%
D11*
%TO.C,C1*%
X188635000Y-72295000D03*
X191135000Y-72295000D03*
%TD*%
D25*
%TO.C,C13*%
X187325000Y-153442500D03*
X187325000Y-155167500D03*
%TD*%
D26*
%TO.C,S3*%
X181455002Y-132130800D03*
X179705000Y-132130800D03*
X177955001Y-132130800D03*
X181454999Y-126949200D03*
X179705000Y-126949200D03*
X177954998Y-126949200D03*
%TD*%
D25*
%TO.C,C14*%
X233045000Y-153442500D03*
X233045000Y-155167500D03*
%TD*%
D27*
%TO.C,D2*%
X167422500Y-118745000D03*
X170397500Y-118745000D03*
%TD*%
D28*
%TO.C,C11*%
X217205000Y-100557500D03*
X217205000Y-98832500D03*
%TD*%
%TO.C,C12*%
X172085000Y-100557500D03*
X172085000Y-98832500D03*
%TD*%
D29*
%TO.C,C7*%
X214665000Y-101257500D03*
X214665000Y-98132500D03*
%TD*%
D30*
%TO.C,C9*%
X235585000Y-152742500D03*
X235585000Y-155867500D03*
%TD*%
D29*
%TO.C,C8*%
X169545000Y-101257500D03*
X169545000Y-98132500D03*
%TD*%
D30*
%TO.C,C10*%
X189865000Y-152742500D03*
X189865000Y-155867500D03*
%TD*%
D31*
%TO.C,R12*%
X175625000Y-118745000D03*
X173625000Y-118745000D03*
%TD*%
D32*
%TO.C,IC3*%
X181610000Y-112965000D03*
X180340000Y-112965000D03*
X179070000Y-112965000D03*
X177800000Y-112965000D03*
X177800000Y-108015000D03*
X179070000Y-108015000D03*
X180340000Y-108015000D03*
X181610000Y-108015000D03*
%TD*%
M02*
